<?xml version="1.0" standalone="no"?>
<!DOCTYPE svg PUBLIC "-//W3C//DTD SVG 20010904//EN"
 "http://www.w3.org/TR/2001/REC-SVG-20010904/DTD/svg10.dtd">
<svg version="1.0" xmlns="http://www.w3.org/2000/svg"
 width="246.000000pt" height="205.000000pt" viewBox="0 0 246.000000 205.000000"
 preserveAspectRatio="xMidYMid meet">
<metadata>
Created by potrace 1.10, written by Peter Selinger 2001-2011
</metadata>
<g transform="translate(0.000000,205.000000) scale(0.100000,-0.100000)"
fill="#000000" stroke="none">
<path d="M356 1327 c-121 -342 -225 -634 -233 -650 l-14 -27 167 2 167 3 37
110 37 110 252 0 253 0 40 -112 40 -113 164 0 163 0 -18 43 c-9 23 -114 315
-232 649 l-214 608 -195 0 -195 0 -219 -623z m589 556 c49 -123 414 -1171 410
-1180 -3 -9 -34 -13 -109 -13 -122 0 -118 -3 -157 113 -13 38 -34 80 -48 93
l-24 24 -246 0 -247 0 -26 -27 c-13 -16 -35 -57 -47 -93 -40 -114 -35 -110
-161 -110 -88 0 -110 3 -110 14 0 8 18 65 41 128 22 62 108 304 191 538 83
234 159 449 170 478 l19 52 169 0 c150 0 169 -2 175 -17z"/>
<path d="M733 1594 c-22 -34 -153 -410 -153 -439 0 -12 9 -30 21 -41 19 -17
38 -19 169 -19 131 0 150 2 169 19 12 11 21 29 21 41 0 29 -131 405 -153 439
-10 14 -26 26 -37 26 -11 0 -27 -12 -37 -26z m52 -21 c3 -16 38 -118 76 -228
38 -109 69 -202 69 -205 0 -3 -72 -5 -160 -5 -88 0 -160 2 -160 5 0 3 34 101
75 219 41 118 75 221 75 228 0 24 18 13 25 -14z"/>
<path d="M1540 1738 c0 -186 4 -243 32 -450 l33 -238 85 0 86 0 37 223 c36
212 37 233 37 450 l0 227 -155 0 -155 0 0 -212z m278 -40 c2 -194 0 -235 -23
-370 -14 -84 -30 -174 -36 -200 l-11 -48 -58 0 c-69 0 -61 -21 -95 250 -3 25
-10 69 -15 99 -11 62 -14 474 -3 485 4 3 59 5 122 4 l116 -3 3 -217z"/>
<path d="M1550 795 l0 -145 145 0 145 0 0 145 0 145 -145 0 -145 0 0 -145z
m260 -1 l0 -115 -112 3 -113 3 0 110 0 110 90 5 c145 8 135 17 135 -116z"/>
<path d="M139 263 c-19 -53 -35 -101 -37 -105 -2 -4 8 -8 21 -8 17 0 28 7 32
20 5 16 15 20 46 20 32 0 39 -3 39 -20 0 -15 7 -20 28 -20 l28 0 -35 105 c-32
98 -36 105 -61 105 -25 0 -29 -7 -61 -97z m71 30 c0 -10 3 -28 6 -40 5 -19 2
-23 -18 -23 -24 0 -25 1 -15 40 11 41 27 54 27 23z"/>
<path d="M490 255 c0 -98 1 -105 20 -105 19 0 20 7 20 105 0 98 -1 105 -20
105 -19 0 -20 -7 -20 -105z"/>
<path d="M940 272 c0 -73 3 -92 18 -105 24 -21 90 -22 120 -1 20 14 22 23 22
105 0 82 -2 89 -20 89 -17 0 -19 -8 -22 -81 -2 -65 -7 -84 -20 -93 -13 -8 -23
-8 -35 0 -14 9 -19 28 -21 93 -3 73 -5 81 -22 81 -18 0 -20 -7 -20 -88z"/>
<path d="M1320 340 c0 -15 7 -20 25 -20 18 0 25 5 25 20 0 15 -7 20 -25 20
-18 0 -25 -5 -25 -20z"/>
<path d="M2020 340 c0 -15 7 -20 25 -20 18 0 25 5 25 20 0 15 -7 20 -25 20
-18 0 -25 -5 -25 -20z"/>
<path d="M580 325 c0 -14 -4 -25 -10 -25 -5 0 -10 -7 -10 -15 0 -8 5 -15 10
-15 6 0 10 -22 10 -48 0 -53 12 -72 47 -72 26 0 32 25 8 34 -10 3 -15 19 -15
46 0 29 4 40 15 40 8 0 15 7 15 15 0 8 -7 15 -15 15 -9 0 -15 9 -15 25 0 18
-5 25 -20 25 -15 0 -20 -7 -20 -25z"/>
<path d="M2120 325 c0 -14 -4 -25 -10 -25 -5 0 -10 -7 -10 -15 0 -8 4 -15 10
-15 5 0 10 -26 12 -57 3 -57 3 -58 36 -61 24 -2 32 1 32 12 0 9 -7 16 -15 16
-11 0 -15 12 -15 45 0 33 4 45 15 45 8 0 15 7 15 15 0 8 -7 15 -15 15 -9 0
-15 9 -15 25 0 18 -5 25 -20 25 -15 0 -20 -7 -20 -25z"/>
<path d="M332 288 c-7 -7 -12 -18 -12 -25 0 -15 26 -18 35 -3 3 6 18 10 31 10
40 0 23 -24 -24 -33 -33 -6 -43 -14 -48 -33 -10 -39 11 -54 77 -53 l59 1 0 58
c0 40 -5 64 -16 74 -18 19 -85 21 -102 4z m76 -85 c-4 -23 -58 -31 -58 -9 0
15 14 24 43 25 12 1 17 -5 15 -16z"/>
<path d="M691 274 c-12 -15 -21 -37 -21 -49 0 -12 9 -34 21 -49 29 -37 89 -37
118 0 12 15 21 37 21 49 0 12 -9 34 -21 49 -16 20 -29 26 -59 26 -30 0 -43 -6
-59 -26z m87 -16 c7 -7 12 -21 12 -33 0 -46 -53 -62 -71 -21 -21 45 26 87 59
54z"/>
<path d="M1145 224 c0 -70 1 -74 22 -74 20 0 22 6 25 58 3 49 6 57 23 57 17 0
20 -8 23 -57 3 -50 6 -58 22 -58 17 0 20 7 20 56 0 82 -9 93 -78 93 l-57 -1 0
-74z"/>
<path d="M1320 225 c0 -73 1 -75 25 -75 24 0 25 2 25 75 0 73 -1 75 -25 75
-24 0 -25 -2 -25 -75z"/>
<path d="M1406 278 c35 -111 41 -123 64 -123 19 0 26 9 40 50 34 100 34 95 6
95 -23 0 -26 -5 -32 -50 -6 -48 -24 -71 -24 -31 0 39 -22 81 -42 81 -16 0 -18
-4 -12 -22z"/>
<path d="M1594 292 c-18 -11 -34 -48 -34 -76 0 -60 82 -88 131 -46 l24 21 -51
-6 c-41 -5 -52 -3 -57 9 -5 13 3 16 48 16 47 0 55 3 55 19 0 34 -39 71 -73 71
-18 0 -37 -4 -43 -8z m70 -37 c4 -12 -3 -15 -29 -15 -33 0 -43 8 -28 23 12 13
51 7 57 -8z"/>
<path d="M1740 225 c0 -72 1 -75 23 -75 20 0 23 4 20 28 -6 35 12 82 31 82 7
0 16 9 19 20 6 23 -21 28 -41 8 -9 -9 -12 -9 -12 0 0 7 -9 12 -20 12 -18 0
-20 -7 -20 -75z"/>
<path d="M1870 286 c-23 -29 -8 -60 34 -71 46 -13 60 -35 23 -35 -14 0 -27 5
-29 11 -2 6 -14 9 -26 7 -21 -3 -22 -4 -7 -25 13 -18 26 -23 59 -23 49 0 69
17 64 52 -2 17 -14 26 -45 36 -68 22 -54 42 15 23 35 -10 41 -2 16 23 -19 20
-88 21 -104 2z"/>
<path d="M2020 225 c0 -71 1 -75 23 -75 21 0 22 4 22 75 0 71 -1 75 -22 75
-22 0 -23 -4 -23 -75z"/>
<path d="M2219 278 c5 -13 18 -46 30 -75 16 -41 18 -53 7 -62 -7 -6 -16 -8
-19 -4 -4 3 -7 -3 -7 -15 0 -16 6 -22 24 -22 31 0 42 14 70 96 13 38 27 77 31
87 6 13 2 17 -18 17 -21 0 -26 -6 -32 -38 -11 -65 -21 -69 -35 -13 -10 44 -15
51 -36 51 -20 0 -22 -3 -15 -22z"/>
</g>
</svg>
