<?xml version="1.0" standalone="no"?>
<!DOCTYPE svg PUBLIC "-//W3C//DTD SVG 20010904//EN"
 "http://www.w3.org/TR/2001/REC-SVG-20010904/DTD/svg10.dtd">
<svg version="1.0" xmlns="http://www.w3.org/2000/svg"
 width="191.000000pt" height="128.000000pt" viewBox="0 0 191.000000 128.000000"
 preserveAspectRatio="xMidYMid meet">
<metadata>
Created by potrace 1.10, written by Peter Selinger 2001-2011
</metadata>
<g transform="translate(0.000000,128.000000) scale(0.100000,-0.100000)"
fill="#000000" stroke="none">
<path d="M1005 1135 c-88 -16 -208 -56 -285 -95 -61 -31 -65 -36 -54 -64 5
-13 16 -10 72 18 82 41 208 81 282 90 93 12 109 16 104 31 -3 7 -1 16 5 20 15
9 14 -41 -5 -244 -11 -124 -12 -176 -4 -190 10 -20 67 -43 83 -34 13 8 7 43
-8 43 -30 0 -33 33 -19 190 7 85 15 176 18 203 l5 47 -62 -1 c-34 0 -93 -7
-132 -14z"/>
<path d="M1222 1121 c-2 -26 2 -31 25 -36 244 -53 351 -242 261 -461 l-25 -60
30 -18 c34 -19 32 -21 73 57 77 148 67 304 -26 410 -57 65 -170 118 -282 132
l-54 7 -2 -31z m203 -49 c23 -7 26 -9 87 -62 57 -50 89 -113 94 -183 4 -61
-16 -151 -45 -198 -25 -41 -26 -34 -5 39 21 71 14 170 -16 241 -21 47 -71 102
-145 159 -19 15 -23 21 -10 17 11 -4 29 -10 40 -13z"/>
<path d="M509 860 l-94 -190 31 0 c27 0 32 5 44 40 l13 40 77 0 77 0 7 -40 c6
-37 9 -40 37 -40 24 0 29 4 25 18 -18 65 -98 339 -101 350 -3 6 -8 12 -13 12
-4 0 -50 -85 -103 -190z m109 33 c7 -32 15 -68 18 -80 6 -22 4 -23 -51 -23
-31 0 -55 4 -53 8 42 103 64 152 68 152 4 0 11 -26 18 -57z"/>
<path d="M1040 1036 c-18 -22 -5 -48 22 -44 17 2 23 10 23 28 0 29 -26 38 -45
16z"/>
<path d="M936 951 c-3 -5 -33 -7 -66 -4 -58 6 -60 5 -95 -30 -45 -45 -50 -106
-11 -140 l24 -21 -21 -11 c-26 -13 -33 -40 -16 -62 11 -12 25 -14 72 -8 77 8
108 -13 71 -49 -20 -21 -86 -21 -125 0 -40 20 -74 15 -74 -11 0 -43 103 -68
186 -45 43 12 67 36 75 77 5 24 1 35 -18 53 -21 20 -30 21 -90 16 -55 -5 -68
-3 -68 8 0 10 18 17 57 22 47 6 64 13 92 41 31 31 33 37 28 83 -4 32 -2 50 5
52 7 3 9 12 5 21 -7 18 -23 22 -31 8z m-44 -58 c25 -23 23 -59 -7 -88 -28 -29
-42 -31 -73 -9 -44 30 -15 114 40 114 12 0 30 -7 40 -17z"/>
<path d="M990 935 c0 -24 4 -30 19 -28 11 1 12 -17 6 -95 -3 -54 -9 -107 -12
-119 -4 -20 -1 -23 24 -23 l30 0 7 112 c4 62 10 125 13 140 5 27 5 28 -41 28
-34 0 -46 -4 -46 -15z"/>
<path d="M1314 940 c-35 -14 -82 -76 -89 -119 -15 -90 35 -151 124 -151 47 0
101 16 101 29 -1 22 -19 32 -38 22 -23 -12 -71 -15 -97 -5 -16 6 -45 54 -45
73 0 6 43 11 108 13 l107 3 3 38 c3 32 -2 43 -31 72 -30 30 -42 35 -78 34 -24
0 -53 -4 -65 -9z m106 -50 c40 -40 27 -50 -60 -50 -44 0 -80 4 -80 9 0 5 14
21 31 35 37 31 81 34 109 6z"/>
<path d="M421 833 c-35 -38 -79 -91 -98 -119 l-34 -51 19 -67 c17 -64 32 -78
32 -30 0 13 36 93 79 178 44 86 77 156 73 156 -4 0 -36 -30 -71 -67z"/>
<path d="M157 460 l-97 -190 31 0 c26 0 33 6 47 40 l17 40 75 -2 74 -3 9 -37
c8 -34 13 -38 39 -38 22 0 29 4 25 14 -3 8 -29 94 -58 190 -29 97 -55 176 -58
176 -4 0 -50 -85 -104 -190z m111 20 c6 -30 14 -65 18 -77 6 -22 4 -23 -54
-23 l-60 0 37 84 c20 46 39 81 42 78 3 -4 11 -32 17 -62z"/>
<path d="M230 444 c-13 -33 -13 -34 5 -34 10 0 15 10 15 30 0 37 -7 38 -20 4z"/>
<path d="M417 588 c-13 -104 -20 -256 -14 -280 6 -24 43 -48 72 -48 25 0 18
47 -7 53 -20 6 -21 9 -14 104 3 54 9 126 13 161 6 61 5 62 -19 62 -23 0 -26
-5 -31 -52z"/>
<path d="M550 633 c0 -5 -7 -75 -15 -156 -15 -163 -11 -191 30 -207 42 -16 55
-12 55 15 0 15 -6 25 -15 25 -27 0 -31 31 -18 168 6 75 12 143 13 150 0 6 -11
12 -25 12 -14 0 -25 -3 -25 -7z"/>
<path d="M1770 546 c0 -29 24 -40 44 -20 20 20 9 44 -20 44 -19 0 -24 -5 -24
-24z"/>
<path d="M823 538 c-42 -9 -51 -20 -35 -45 5 -8 13 -9 22 -3 8 6 34 10 57 10
32 0 45 -5 53 -19 18 -34 11 -41 -36 -41 -78 0 -134 -42 -134 -101 0 -52 39
-83 93 -76 21 3 47 13 58 23 11 10 19 12 19 5 0 -18 48 -37 62 -23 8 8 8 15
-2 26 -8 11 -11 42 -9 93 1 43 2 88 1 100 -4 44 -75 68 -149 51z m97 -168 c0
-36 -4 -42 -34 -57 -49 -23 -86 -12 -86 27 0 23 7 35 33 50 17 11 44 20 60 20
25 0 27 -3 27 -40z"/>
<path d="M1124 541 c-12 -5 -25 -14 -29 -20 -9 -16 -25 -13 -25 4 0 8 -8 15
-18 15 -17 0 -20 -15 -30 -122 -15 -156 -16 -148 12 -148 23 0 25 4 31 78 10
122 13 131 50 149 31 15 36 15 61 -1 26 -18 26 -19 20 -100 -4 -44 -9 -105
-13 -135 l-6 -54 94 64 c51 35 122 91 157 124 l64 59 -31 15 -32 15 -52 -55
c-29 -31 -68 -68 -88 -83 -26 -19 -35 -32 -32 -45 3 -10 -1 -22 -8 -26 -9 -6
-10 17 -5 107 6 102 5 117 -11 136 -20 25 -76 37 -109 23z"/>
<path d="M1367 536 c-20 -8 -43 -19 -51 -25 -24 -20 -46 -77 -46 -117 l0 -37
24 22 c13 13 27 35 31 49 15 59 75 93 129 72 21 -8 32 -7 42 1 22 18 17 27
-23 38 -48 14 -59 13 -106 -3z"/>
<path d="M1625 543 c-63 -16 -107 -79 -108 -154 -1 -58 22 -95 71 -116 61 -25
161 1 147 39 -6 15 -10 15 -42 2 -62 -26 -123 5 -123 63 0 22 2 23 105 23
l105 0 0 38 c0 77 -72 125 -155 105z m68 -44 c26 -14 37 -28 37 -50 0 -13 -14
-15 -80 -16 -44 0 -80 3 -80 6 0 15 34 53 54 61 29 12 44 12 69 -1z"/>
<path d="M640 520 c0 -13 7 -20 19 -20 16 0 18 -6 15 -37 -3 -21 -8 -73 -12
-115 l-8 -78 27 0 c26 0 26 1 33 88 4 48 9 108 13 135 l6 47 -47 0 c-39 0 -46
-3 -46 -20z"/>
<path d="M1445 314 c-16 -8 -40 -11 -51 -9 -13 3 -32 -3 -45 -14 l-24 -19 28
-7 c30 -8 104 1 126 15 11 6 12 14 5 28 -8 17 -12 18 -39 6z"/>
<path d="M250 313 c0 -26 66 -106 112 -137 104 -69 152 -80 338 -80 149 1 173
3 251 27 144 44 195 70 202 103 7 37 4 39 -25 20 -34 -22 -151 -65 -227 -82
-79 -19 -238 -20 -306 -3 -53 13 -113 40 -156 70 -19 13 -36 17 -58 13 -50
-10 -79 2 -89 39 -7 28 -42 53 -42 30z"/>
</g>
</svg>
