<?xml version="1.0" standalone="no"?>
<!DOCTYPE svg PUBLIC "-//W3C//DTD SVG 20010904//EN"
 "http://www.w3.org/TR/2001/REC-SVG-20010904/DTD/svg10.dtd">
<svg version="1.0" xmlns="http://www.w3.org/2000/svg"
 width="300.000000pt" height="128.000000pt" viewBox="0 0 300.000000 128.000000"
 preserveAspectRatio="xMidYMid meet">
<metadata>
Created by potrace 1.10, written by Peter Selinger 2001-2011
</metadata>
<g transform="translate(0.000000,128.000000) scale(0.100000,-0.100000)"
fill="#000000" stroke="none">
<path d="M1743 1237 c-31 -29 -37 -41 -41 -89 -4 -54 -3 -58 34 -98 48 -50
100 -62 157 -35 54 26 81 74 74 138 -4 42 -10 56 -41 84 -31 29 -42 33 -91 33
-49 0 -60 -4 -92 -33z m170 -15 c21 -21 31 -43 34 -75 5 -40 2 -48 -28 -81
-59 -63 -145 -51 -185 25 -29 57 -5 119 61 158 31 18 85 5 118 -27z"/>
<path d="M1325 1205 c-29 -28 -34 -88 -10 -122 20 -28 75 -46 106 -34 65 24
86 106 40 155 -34 36 -101 37 -136 1z m125 -23 c28 -34 25 -59 -10 -94 -25
-24 -36 -29 -58 -23 -78 20 -92 109 -21 139 40 17 64 11 89 -22z"/>
<path d="M1037 1042 c-22 -24 -21 -65 1 -85 40 -36 102 -9 102 45 0 51 -69 78
-103 40z m77 -11 c21 -17 20 -40 -1 -63 -20 -22 -41 -23 -65 -1 -23 21 -23 38
1 62 21 21 41 22 65 2z"/>
<path d="M850 901 l-35 -6 0 -193 0 -194 28 -24 c37 -31 82 -32 91 -1 9 35 7
47 -9 47 -28 0 -33 34 -28 207 4 100 2 172 -3 172 -5 -1 -25 -4 -44 -8z m20
-179 c0 -126 3 -153 19 -185 17 -34 18 -39 4 -44 -10 -4 -24 3 -38 19 -20 24
-22 37 -23 174 -1 160 2 184 24 184 11 0 14 -26 14 -148z"/>
<path d="M2148 903 l-38 -4 0 -220 0 -219 40 0 40 0 -1 68 c0 46 -3 61 -9 47
-5 -11 -9 -35 -9 -52 -1 -25 -5 -33 -20 -33 -10 0 -21 6 -23 13 -9 26 0 359
10 369 21 21 32 -5 33 -80 2 -134 17 -138 18 -4 1 67 0 121 -1 120 -2 -1 -20
-3 -40 -5z"/>
<path d="M666 887 c-28 -20 -18 -69 16 -81 22 -8 32 -6 48 9 50 45 -9 112 -64
72z m50 -28 c10 -17 -13 -36 -27 -22 -12 12 -4 33 11 33 5 0 12 -5 16 -11z"/>
<path d="M1333 843 l-33 -4 0 -127 c1 -208 22 -252 123 -252 68 0 81 9 72 48
-6 27 -9 30 -33 23 -60 -18 -83 13 -81 107 1 24 -1 46 -5 49 -12 13 -6 -133 7
-151 7 -10 28 -21 45 -24 44 -9 45 -26 3 -30 -44 -4 -86 14 -99 42 -6 13 -10
81 -9 157 2 126 3 134 22 134 12 0 21 -9 25 -25 l6 -25 7 25 c10 38 8 60 -5
58 -7 0 -28 -3 -45 -5z"/>
<path d="M52 763 c-19 -4 -23 -9 -18 -26 3 -12 6 -27 6 -33 0 -6 21 -9 59 -6
52 4 60 2 74 -19 9 -12 20 -19 24 -15 5 4 -7 21 -25 37 -25 23 -39 28 -62 24
-17 -3 -30 -1 -30 5 0 5 3 10 8 11 4 0 20 2 36 4 44 6 93 -21 105 -57 12 -35
15 -167 3 -185 -8 -12 -25 -16 -57 -14 -19 2 -19 3 3 18 26 18 30 74 7 93 -9
7 -14 19 -11 26 7 19 -46 27 -93 14 -44 -12 -71 -33 -71 -57 0 -11 8 -8 31 11
45 38 63 35 39 -8 l-20 -33 21 -27 c11 -14 28 -26 37 -26 14 0 14 -2 3 -9 -19
-12 -73 5 -93 30 -17 20 -18 20 -18 2 0 -50 92 -76 206 -58 l46 6 -4 120 c-3
114 -4 120 -30 146 -23 23 -37 27 -90 29 -35 1 -74 0 -86 -3z m128 -209 c0
-35 0 -35 -41 -32 -79 6 -76 68 2 68 38 0 39 -1 39 -36z"/>
<path d="M391 753 c-56 -29 -76 -65 -75 -133 1 -63 18 -101 56 -121 29 -16
105 -16 120 -1 14 14 7 15 -55 12 -29 -1 -43 5 -67 28 -26 26 -30 38 -30 84 1
80 42 119 128 120 95 0 92 5 92 -147 0 -139 -7 -172 -42 -194 -39 -24 -157
-24 -142 0 3 5 16 6 30 3 50 -13 99 15 109 62 l6 29 -16 -28 c-21 -37 -45 -45
-108 -36 -29 3 -53 6 -54 5 -2 -2 -6 -16 -9 -34 -6 -29 -4 -31 30 -38 20 -3
64 -4 97 -2 48 4 65 10 87 31 27 27 27 29 32 193 3 91 2 168 -2 170 -3 2 -39
7 -80 10 -59 4 -80 2 -107 -13z"/>
<path d="M660 613 l0 -153 40 0 40 0 0 153 0 152 -40 0 -40 0 0 -152z m58 2
c2 -78 -1 -111 -10 -116 -6 -4 -16 -5 -20 -3 -10 6 -11 218 -1 228 20 20 28
-9 31 -109z"/>
<path d="M1039 747 c-93 -61 -92 -223 1 -269 35 -18 123 -24 168 -11 20 5 23
10 18 36 -3 17 -7 32 -9 33 -1 1 -21 -1 -43 -5 -53 -10 -105 7 -121 39 -12 23
-13 23 -13 4 0 -31 42 -64 86 -68 68 -6 71 -7 49 -16 -58 -25 -143 3 -168 56
-45 93 9 193 104 194 56 0 95 -26 107 -73 12 -42 5 -57 -25 -57 -22 0 -24 3
-18 29 7 34 -7 66 -36 82 -36 19 -99 -19 -99 -60 0 -5 13 4 30 20 32 33 63 33
88 1 25 -33 15 -42 -50 -42 -46 0 -59 -3 -51 -11 6 -6 9 -18 6 -25 -4 -11 13
-14 91 -14 l96 0 -1 33 c-2 120 -115 188 -210 124z"/>
<path d="M1927 761 c-20 -4 -39 -10 -42 -12 -2 -3 -5 -68 -6 -144 l-1 -140 41
-3 41 -3 0 122 0 122 49 -5 c48 -5 49 -4 55 25 3 17 4 32 2 34 -8 8 -104 11
-139 4z m110 -28 c3 -8 -11 -15 -37 -19 -37 -6 -63 -28 -59 -51 1 -4 1 -45 0
-91 -1 -80 -2 -83 -23 -80 -21 3 -22 8 -23 103 -2 116 3 137 36 147 36 10 102
5 106 -9z"/>
<path d="M2329 761 c-45 -6 -62 -19 -119 -96 -14 -17 -12 -17 16 3 17 12 39
33 48 47 16 24 46 35 46 15 0 -5 -13 -25 -30 -43 -34 -39 -39 -54 -11 -35 24
17 115 118 104 116 -4 0 -29 -4 -54 -7z"/>
<path d="M2471 752 c-94 -52 -99 -216 -8 -273 26 -16 46 -19 109 -17 42 2 78
5 81 8 3 3 2 20 0 38 -4 27 -9 32 -25 26 -48 -15 -108 -7 -135 17 l-26 24 12
-23 c15 -29 49 -42 107 -42 50 0 58 -13 15 -28 -26 -9 -91 -3 -132 13 -51 20
-72 141 -34 199 62 95 214 62 215 -46 l0 -38 -74 0 c-41 0 -78 -4 -81 -10 -4
-6 28 -10 89 -10 l95 0 -5 28 c-2 15 -6 41 -9 58 -13 76 -119 118 -194 76z"/>
<path d="M1423 747 c45 -13 43 -30 -4 -38 -31 -5 -29 -6 19 -10 l52 -4 0 33 0
32 -52 -1 -53 -2 38 -10z"/>
<path d="M1550 644 l0 -116 34 -34 c33 -33 37 -34 107 -33 116 1 109 -8 112
157 l2 142 -43 0 -44 0 4 -115 c3 -104 1 -114 -16 -119 -25 -6 -62 9 -70 29
-3 9 -6 59 -6 111 l0 94 -40 0 -40 0 0 -116z m61 34 c1 -99 7 -132 30 -150 24
-20 51 -23 80 -8 17 10 19 22 19 110 0 99 5 115 33 104 12 -4 15 -28 16 -119
1 -133 0 -135 -96 -135 -56 0 -95 15 -115 44 -4 6 -8 57 -8 114 0 95 1 102 20
102 18 0 20 -7 21 -62z"/>
<path d="M2700 756 c0 -9 34 -100 71 -188 48 -115 45 -135 -23 -140 -36 -3
-43 -7 -49 -30 -9 -34 -5 -38 48 -38 74 0 100 21 145 117 35 76 98 253 98 275
0 4 -17 8 -38 8 l-38 0 -24 -82 c-13 -46 -25 -90 -27 -98 -12 -42 24 34 42 90
17 51 26 66 43 68 26 4 27 -4 6 -54 -9 -21 -17 -46 -19 -56 -2 -10 -23 -61
-46 -114 -45 -103 -76 -134 -132 -134 -38 0 -30 22 11 32 19 5 37 19 46 36 15
28 13 34 -48 177 -35 81 -39 96 -28 107 16 16 39 3 46 -27 12 -46 48 -137 53
-132 2 3 -8 46 -23 96 l-27 91 -44 0 c-23 0 -43 -2 -43 -4z"/>
<path d="M444 723 c-35 -7 -57 -39 -62 -92 -4 -45 -2 -53 25 -80 23 -23 35
-28 59 -23 46 9 54 23 53 104 -1 71 -1 72 -10 28 -5 -25 -7 -56 -4 -69 7 -28
-8 -41 -47 -41 -37 0 -58 25 -58 68 0 52 23 81 71 88 28 5 36 10 27 15 -13 9
-18 9 -54 2z"/>
<path d="M2492 697 c-12 -13 -22 -27 -22 -32 0 -4 11 4 25 19 31 34 51 33 86
-5 16 -17 29 -26 29 -20 0 21 -48 61 -73 61 -13 0 -33 -10 -45 -23z"/>
<path d="M2507 628 c15 -7 33 -7 60 0 38 10 37 10 -22 10 -49 1 -56 -1 -38
-10z"/>
<path d="M2260 622 c0 -6 6 -17 13 -24 13 -15 59 -76 71 -95 5 -9 0 -13 -18
-13 -18 0 -34 13 -60 49 -20 27 -43 51 -51 54 -7 3 8 -24 35 -61 47 -65 51
-68 95 -70 25 -1 45 1 45 4 0 11 -86 128 -109 148 -11 11 -21 14 -21 8z"/>
<path d="M1884 337 c-26 -14 -34 -27 -34 -58 0 -52 69 -79 103 -41 44 48 -13
130 -69 99z m60 -26 c22 -25 13 -58 -20 -73 -19 -9 -28 -8 -44 7 -24 22 -25
42 -3 67 21 23 45 23 67 -1z"/>
<path d="M1093 264 c-46 -23 -73 -71 -73 -129 0 -42 5 -52 39 -86 28 -28 47
-39 67 -38 l29 1 -30 13 c-45 20 -76 58 -82 102 -4 31 1 45 26 81 25 33 38 42
64 44 57 2 71 -2 100 -31 59 -58 40 -148 -40 -190 -36 -19 -36 -20 -12 -21 54
0 109 68 109 135 0 98 -110 164 -197 119z"/>
<path d="M1573 233 c-12 -2 -34 -18 -49 -36 -31 -37 -28 -86 7 -123 32 -34
100 -33 134 1 27 26 34 80 14 117 -9 16 -71 52 -81 47 -2 -1 -13 -4 -25 -6z
m73 -36 c66 -57 -9 -170 -83 -122 -52 35 -55 102 -5 129 38 21 57 20 88 -7z"/>
</g>
</svg>
