<?xml version="1.0" standalone="no"?>
<!DOCTYPE svg PUBLIC "-//W3C//DTD SVG 20010904//EN"
 "http://www.w3.org/TR/2001/REC-SVG-20010904/DTD/svg10.dtd">
<svg version="1.0" xmlns="http://www.w3.org/2000/svg"
 width="300.000000pt" height="149.000000pt" viewBox="0 0 300.000000 149.000000"
 preserveAspectRatio="xMidYMid meet">
<metadata>
Created by potrace 1.10, written by Peter Selinger 2001-2011
</metadata>
<g transform="translate(0.000000,149.000000) scale(0.100000,-0.100000)"
fill="#000000" stroke="none">
<path d="M169 1356 c-28 -16 -37 -34 -81 -150 -29 -80 -29 -80 -10 -105 22
-29 48 -31 99 -10 27 11 37 10 72 -6 36 -16 45 -16 66 -5 19 10 30 11 50 2 37
-17 107 -15 134 4 21 15 25 15 55 -1 25 -13 37 -15 52 -7 13 7 26 7 35 1 7 -5
27 -9 43 -9 23 0 27 -3 20 -17 -5 -10 -10 -67 -12 -127 -3 -91 -1 -111 14
-127 27 -30 57 -23 97 21 45 50 77 53 115 9 50 -60 117 -73 187 -38 l43 21 30
-22 c27 -20 38 -22 89 -16 35 4 72 16 94 31 l36 24 38 -27 c30 -22 47 -26 89
-25 28 2 71 3 96 3 25 0 59 8 77 17 30 16 34 16 70 0 21 -10 54 -17 73 -17 19
1 60 -2 91 -6 53 -6 58 -5 94 27 l37 33 20 -27 c26 -36 69 -36 97 -1 16 20 21
41 21 84 0 50 3 60 24 74 45 29 42 86 -4 101 -25 8 -27 35 -2 35 9 -1 28 -7
42 -15 37 -21 107 -19 146 6 l33 20 29 -21 c31 -23 54 -19 82 15 11 14 16 13
46 -10 64 -49 101 -24 112 76 l7 64 56 0 c67 1 89 16 89 60 0 48 -21 60 -110
61 -43 1 -83 5 -90 9 -7 4 -25 -2 -42 -15 l-30 -22 -43 23 -44 23 -30 -22 -31
-22 -37 20 c-47 25 -96 25 -149 1 -37 -17 -42 -17 -60 -2 -17 14 -43 16 -145
15 -128 -2 -148 -2 -235 0 -44 1 -58 -4 -92 -31 l-39 -32 -22 30 c-25 34 -63
46 -96 31 -28 -13 -50 -54 -90 -165 -27 -75 -27 -78 -10 -97 21 -23 22 -20
-28 -54 -46 -32 -48 -32 -76 -2 l-22 24 25 6 c39 10 47 36 44 152 -3 103 -4
108 -30 127 l-28 21 -30 -22 c-36 -27 -34 -27 -70 -1 -25 19 -32 20 -59 10
-22 -10 -34 -10 -50 -1 -23 12 -48 3 -70 -24 -16 -19 -17 -206 -2 -234 16 -30
16 -30 -39 -30 -55 -1 -58 2 -33 30 14 15 15 24 7 46 -7 19 -7 35 -1 50 7 16
6 29 -3 47 -10 20 -11 28 -2 37 19 19 14 45 -14 67 -21 16 -41 21 -91 21 -55
0 -67 -4 -88 -25 -21 -20 -25 -34 -25 -84 0 -102 -41 -93 -50 11 -4 51 -9 64
-31 80 -19 15 -31 17 -50 10 -14 -6 -34 -6 -48 -1 -17 7 -31 5 -47 -6 -20 -13
-27 -13 -58 0 -19 8 -48 15 -63 15 -34 0 -103 -31 -122 -54 -13 -15 -16 -14
-40 13 -31 36 -67 46 -102 27z m91 -93 c13 -38 31 -85 42 -105 23 -48 23 -48
-11 -48 -19 0 -31 6 -33 16 -2 13 -15 17 -53 17 -38 0 -51 -4 -53 -17 -2 -10
-14 -16 -32 -16 -28 0 -29 1 -19 28 25 62 61 158 66 175 4 11 16 17 37 17 31
0 33 -3 56 -67z m235 51 c14 -9 25 -22 25 -29 0 -19 -37 -25 -51 -9 -34 41
-117 -11 -104 -66 15 -60 62 -80 103 -44 l27 23 -37 1 c-31 0 -38 4 -38 20 0
18 7 20 60 20 64 0 69 -5 51 -53 -23 -60 -87 -87 -146 -63 -83 35 -94 159 -17
200 36 20 97 20 127 0z m115 -94 l0 -110 -25 0 -25 0 0 110 0 110 25 0 25 0 0
-110z m82 20 l-4 -90 51 0 c44 0 51 -3 51 -20 0 -18 -7 -20 -72 -20 l-73 0 0
110 0 110 26 0 25 0 -4 -90z m288 70 c0 -18 -7 -20 -59 -20 -56 0 -58 -1 -58
-25 0 -24 2 -25 58 -25 52 0 59 -2 59 -20 0 -18 -7 -20 -60 -20 -57 0 -60 -1
-60 -25 0 -24 3 -25 60 -25 53 0 60 -2 60 -20 0 -18 -7 -20 -80 -20 l-80 0 0
110 0 110 80 0 c73 0 80 -2 80 -20z m160 -90 l0 -110 -25 0 -25 0 0 110 0 110
25 0 25 0 0 -110z m138 45 l47 -66 3 66 c3 62 4 65 27 65 l25 0 0 -110 c0
-110 0 -110 -24 -110 -19 0 -36 16 -75 72 l-51 72 0 -72 c0 -70 -1 -72 -25
-72 l-25 0 0 110 0 110 25 0 c20 0 36 -15 73 -65z m384 -27 c19 -51 38 -101
43 -110 6 -15 2 -18 -23 -18 -20 0 -32 6 -34 16 -5 25 -96 26 -104 2 -3 -12
-15 -18 -33 -18 l-28 0 41 110 c40 107 42 110 72 110 29 0 32 -4 66 -92z m232
67 c32 -27 32 -29 0 -39 -13 -4 -26 -1 -34 9 -31 38 -103 1 -103 -53 0 -60 55
-94 98 -61 20 16 28 18 45 9 18 -10 19 -14 8 -27 -44 -54 -143 -48 -178 10
-22 35 -26 97 -10 127 28 53 126 66 174 25z m216 5 c0 -16 -7 -20 -32 -20
l-33 0 3 -90 3 -90 -28 0 -28 0 3 90 3 90 -35 0 c-29 0 -36 4 -36 20 0 19 7
20 90 20 83 0 90 -1 90 -20z m70 -90 c0 -107 -1 -110 -22 -110 -22 0 -23 3
-23 110 0 107 1 110 23 110 21 0 22 -3 22 -110z m226 87 c38 -33 46 -119 14
-159 -31 -40 -86 -54 -132 -35 -85 36 -99 150 -26 201 35 25 111 21 144 -7z
m165 -42 c24 -35 46 -65 49 -65 3 0 4 29 2 65 -4 64 -4 65 22 65 l26 0 0 -110
c0 -108 -1 -110 -23 -110 -16 0 -34 17 -67 66 -24 36 -48 68 -53 71 -5 3 -7
-27 -5 -66 3 -70 3 -71 -22 -71 l-25 0 0 110 0 110 26 0 c20 0 35 -13 70 -65z
m172 58 c-7 -2 -13 -18 -13 -34 0 -16 -5 -29 -11 -29 -7 0 -10 12 -7 30 3 21
0 30 -11 33 -9 3 0 5 19 5 19 0 29 -2 23 -5z m44 -15 l10 -23 7 23 c11 35 26
26 25 -15 0 -28 -2 -33 -8 -19 -7 19 -8 19 -15 0 -7 -18 -8 -18 -21 -1 -13 18
-13 18 -18 0 -3 -10 -5 -1 -6 20 -1 42 11 48 26 15z m-935 -105 c-34 -14 -52
-11 -52 11 0 28 22 35 54 19 l31 -16 -33 -14z m102 31 c8 -22 8 -52 -2 -57 -4
-3 -20 6 -37 19 -29 23 -29 24 -10 38 26 20 41 20 49 0z m26 -152 c0 -7 -8
-12 -17 -11 -48 4 -75 -4 -108 -32 l-35 -31 -20 23 c-10 13 -19 27 -20 32 0 4
23 7 51 7 46 0 55 4 83 35 l31 35 17 -23 c10 -12 18 -28 18 -35z m137 2 c-3
-3 -17 -4 -31 -2 -26 3 -26 4 -10 26 l16 23 15 -21 c8 -12 13 -24 10 -26z
m-817 11 l23 -25 -24 0 c-13 0 -30 4 -38 9 -12 8 -12 12 -2 25 17 20 13 21 41
-9z m343 -11 c18 -9 33 -18 35 -19 2 -2 -4 -15 -13 -29 l-17 -26 -28 23 c-15
12 -35 27 -45 33 -22 12 -12 34 16 34 11 0 34 -7 52 -16z m-468 -14 c0 -22
-31 -36 -49 -20 -15 12 -14 14 6 25 27 15 43 13 43 -5z m-232 -22 c-18 -18
-24 -19 -37 -8 -25 20 -19 30 21 30 l37 0 -21 -22z m-62 -37 c44 -55 5 -121
-72 -121 -39 0 -39 0 -39 -40 0 -36 -2 -40 -25 -40 l-25 0 0 116 0 116 71 -4
c60 -3 74 -8 90 -27z m213 10 c39 -26 55 -57 56 -105 0 -54 -54 -106 -111
-106 -47 0 -84 22 -105 61 -28 55 -14 109 39 147 39 27 82 28 121 3z m208 9
c52 -15 78 -52 78 -109 0 -77 -45 -111 -146 -111 l-54 0 0 115 0 115 43 0 c23
0 59 -5 79 -10z m276 -10 c38 -24 43 -50 8 -50 -14 0 -28 5 -31 10 -7 12 -55
13 -71 2 -20 -13 -35 -53 -28 -75 17 -56 67 -74 103 -38 17 17 22 18 38 5 17
-13 17 -15 -10 -39 -41 -37 -96 -34 -142 6 -31 27 -35 37 -35 79 0 97 87 149
168 100z m207 -52 c15 -40 36 -92 46 -115 l18 -43 -29 0 c-20 0 -31 6 -35 20
-5 16 -15 20 -55 20 -39 0 -49 -3 -53 -20 -3 -14 -14 -20 -31 -20 -14 0 -26 3
-26 7 0 3 19 55 42 115 39 101 44 108 69 108 25 0 30 -7 54 -72z m204 61 c32
-11 37 -23 21 -49 -7 -12 -12 -12 -22 -2 -6 6 -27 12 -46 12 -49 0 -40 -31 13
-42 50 -11 75 -34 75 -69 0 -60 -81 -89 -150 -54 -34 17 -37 27 -15 45 11 10
18 9 30 -4 20 -20 69 -21 84 -2 14 17 -1 28 -54 40 -67 16 -88 77 -39 115 30
24 56 26 103 10z m237 -16 c3 -20 0 -23 -31 -23 l-35 0 0 -90 c0 -89 0 -90
-25 -90 -25 0 -25 1 -25 90 l0 90 -35 0 c-27 0 -35 4 -35 18 0 30 10 33 99 30
78 -3 84 -4 87 -25z m-675 -74 c16 -8 18 -13 8 -25 -23 -28 -68 -11 -55 21 6
18 20 19 47 4z"/>
<path d="M187 1236 c-9 -27 -17 -50 -17 -51 0 0 16 -1 35 -1 38 0 38 1 11 71
l-12 30 -17 -49z"/>
<path d="M1581 1244 c-7 -21 -14 -44 -17 -50 -3 -6 9 -10 31 -10 38 1 38 3 11
70 l-12 29 -13 -39z"/>
<path d="M2281 1264 c-12 -15 -21 -32 -21 -38 1 -31 14 -54 41 -70 28 -16 32
-17 55 -1 29 19 46 57 37 82 -20 58 -77 71 -112 27z m69 -43 c0 -19 -23 -35
-34 -24 -14 15 -5 43 14 43 13 0 20 -7 20 -19z"/>
<path d="M770 966 c0 -24 4 -26 41 -26 36 0 40 2 37 23 -2 18 -10 23 -40 25
-35 3 -38 1 -38 -22z"/>
<path d="M987 972 c-24 -27 -21 -74 6 -100 62 -59 141 24 91 96 -19 28 -74 30
-97 4z m73 -54 c0 -15 -32 -21 -40 -7 -13 20 9 43 26 28 8 -6 14 -16 14 -21z"/>
<path d="M1230 919 l0 -72 38 6 c96 16 94 137 -3 137 l-35 0 0 -71z"/>
<path d="M1725 965 c-4 -11 -11 -31 -16 -44 -12 -29 -8 -33 28 -29 l29 3 -17
45 c-14 37 -18 42 -24 25z"/>
<path d="M1361 721 c-6 -4 -42 -6 -80 -4 -63 3 -69 1 -92 -25 -13 -15 -23 -30
-22 -34 2 -4 -159 -7 -357 -8 -198 0 -366 -3 -374 -6 -31 -12 -29 -55 2 -71 9
-4 174 -9 366 -10 192 -2 352 -5 354 -8 3 -3 10 -5 16 -5 6 0 4 5 -4 10 -12 8
-11 10 6 10 11 0 31 -11 43 -24 21 -22 29 -23 124 -22 56 1 108 5 114 9 7 4
22 3 34 -4 16 -8 28 -8 46 0 19 9 29 9 40 0 11 -10 22 -10 48 0 27 9 38 9 54
-1 17 -10 24 -10 39 0 9 7 25 15 35 18 9 4 17 9 17 13 0 3 159 7 353 9 193 2
360 6 370 8 11 4 17 15 17 34 0 25 -5 30 -32 35 -18 3 -183 6 -367 7 l-335 3
-37 39 c-36 40 -37 40 -63 23 -23 -15 -29 -16 -48 -3 -25 15 -244 21 -267 7z
m-106 -76 c8 -54 20 -51 29 5 9 55 30 52 47 -7 l13 -48 9 48 c8 36 15 47 30
47 11 0 17 -5 14 -12 -2 -7 -12 -39 -21 -70 -10 -35 -22 -58 -31 -58 -13 0
-16 6 -30 65 -7 27 -8 28 -15 10 -5 -11 -9 -33 -9 -48 -1 -23 -5 -28 -22 -25
-17 2 -25 14 -34 48 -6 25 -15 55 -19 68 -6 18 -4 22 12 22 16 0 21 -9 27 -45z
m195 -25 c0 -63 -2 -70 -20 -70 -18 0 -20 7 -20 70 0 63 2 70 20 70 18 0 20
-7 20 -70z m120 60 c0 -5 -9 -10 -20 -10 -18 0 -20 -7 -20 -60 0 -47 -3 -60
-15 -60 -12 0 -15 13 -15 60 0 53 -2 60 -20 60 -11 0 -20 5 -20 10 0 6 25 10
55 10 30 0 55 -4 55 -10z m50 -15 c0 -21 5 -25 30 -25 25 0 30 4 30 25 0 18 5
25 20 25 18 0 20 -7 20 -70 0 -63 -2 -70 -20 -70 -16 0 -20 7 -20 30 0 27 -3
30 -30 30 -27 0 -30 -3 -30 -30 0 -24 -4 -30 -21 -30 -15 0 -19 4 -15 16 3 9
6 40 6 70 0 41 4 54 15 54 9 0 15 -9 15 -25z m-420 -55 c0 -20 -7 -20 -385
-20 -378 0 -385 0 -385 20 0 20 7 20 385 20 378 0 385 0 385 -20z m1300 0 c0
-20 -7 -20 -380 -20 -373 0 -380 0 -380 20 0 20 7 20 380 20 373 0 380 0 380
-20z"/>
<path d="M292 457 c-20 -21 -22 -34 -22 -121 0 -53 5 -106 10 -116 19 -36 146
-49 199 -21 15 8 27 9 40 2 11 -6 36 -11 58 -11 21 0 99 -2 173 -4 145 -5 181
2 198 38 13 30 -1 54 -44 72 -33 14 -34 16 -34 73 0 98 -61 146 -109 85 -16
-20 -21 -41 -21 -86 0 -51 -2 -59 -17 -56 -14 3 -19 15 -21 63 -4 84 -23 102
-106 101 -36 -1 -70 -7 -79 -14 -13 -11 -21 -11 -46 2 -18 10 -56 16 -94 16
-53 0 -67 -4 -85 -23z m283 -128 c0 -106 -1 -109 -22 -109 -23 0 -23 2 -23
114 0 112 0 113 23 109 21 -4 22 -8 22 -114z m133 -69 c41 0 48 -3 49 -20 2
-18 -4 -20 -70 -20 l-72 0 0 110 c0 102 1 109 20 112 19 3 20 -3 23 -89 l3
-93 47 0z m167 0 c38 0 45 -3 45 -20 0 -18 -7 -20 -70 -20 l-70 0 0 109 c0
106 1 110 23 113 21 3 22 0 25 -89 l3 -93 44 0z m-407 164 c27 -19 29 -60 3
-76 -20 -12 -20 -12 0 -26 23 -16 25 -59 2 -84 -13 -14 -31 -18 -90 -18 l-73
0 0 110 0 110 68 0 c45 0 75 -5 90 -16z"/>
<path d="M350 375 c0 -25 3 -26 43 -23 34 2 42 7 42 23 0 16 -8 21 -42 23 -40
3 -43 2 -43 -23z"/>
<path d="M350 285 c0 -22 4 -25 39 -25 44 0 75 25 50 41 -8 5 -31 9 -51 9 -34
0 -38 -3 -38 -25z"/>
<path d="M1022 457 c-20 -21 -22 -34 -22 -129 0 -89 3 -107 18 -121 22 -20 63
-22 80 -5 9 9 18 9 37 0 36 -17 137 -15 171 2 24 13 32 13 62 0 42 -17 74 -18
90 -2 10 10 17 10 32 0 51 -31 98 -2 107 67 7 54 23 63 23 13 0 -66 61 -117
96 -82 8 8 19 7 38 -1 22 -10 32 -10 48 0 15 9 23 10 31 2 16 -16 59 -13 84 4
20 14 25 14 55 -5 42 -25 98 -26 146 -1 33 17 40 17 57 5 27 -20 55 -17 82 8
l23 21 23 -22 c19 -17 36 -22 78 -22 30 0 83 -1 119 -2 49 -1 73 4 98 18 97
58 95 196 -4 252 -42 24 -151 32 -170 13 -6 -6 -21 -6 -42 2 -28 11 -34 10
-55 -10 -29 -27 -32 -27 -64 -2 -30 24 -66 26 -83 5 -16 -19 -39 -19 -64 0
-25 19 -103 19 -140 0 -36 -19 -50 -19 -66 0 -20 25 -74 19 -104 -12 l-27 -26
-27 26 c-24 23 -35 26 -96 25 -54 0 -76 -5 -97 -20 l-27 -21 -28 22 c-30 24
-55 27 -84 9 -16 -10 -24 -10 -40 0 -37 23 -77 15 -107 -22 l-27 -35 -38 35
c-35 31 -43 34 -101 34 -53 0 -67 -4 -85 -23z m481 -58 c12 -21 25 -39 29 -39
4 0 18 18 30 39 16 28 31 41 50 43 16 3 28 3 28 1 0 -2 -18 -31 -40 -64 -33
-50 -40 -69 -40 -110 0 -46 -2 -49 -25 -49 -23 0 -25 4 -25 46 0 38 -7 57 -44
109 -24 35 -42 65 -40 68 15 15 57 -10 77 -44z m397 -64 l0 -115 -28 0 -28 0
4 73 c5 84 -5 82 -38 -10 -13 -35 -28 -63 -34 -63 -7 0 -23 34 -37 75 -13 41
-27 75 -31 75 -4 0 -5 -34 -1 -75 l6 -75 -27 0 -26 0 0 110 0 110 33 0 c32 0
34 -3 56 -65 13 -36 26 -65 30 -65 3 0 15 28 26 63 19 58 23 62 55 68 19 4 36
7 38 8 1 0 2 -51 2 -114z m485 -6 l0 -109 -25 0 c-20 0 -34 14 -70 69 -25 39
-49 70 -54 70 -4 1 -5 -30 -1 -69 l7 -70 -26 0 -26 0 0 110 0 110 25 0 c18 0
33 -11 53 -41 15 -22 37 -52 49 -67 l22 -27 1 71 c0 68 1 71 23 67 21 -4 22
-8 22 -114z m-1195 91 c32 -32 21 -110 -15 -110 -12 0 -9 -9 10 -40 31 -49 31
-50 0 -50 -18 0 -30 10 -47 40 -31 54 -58 54 -58 0 0 -35 -3 -40 -22 -40 -22
0 -23 3 -23 110 l0 110 68 0 c54 0 71 -4 87 -20z m212 -72 c21 -51 40 -101 44
-110 5 -15 1 -18 -24 -18 -21 0 -31 6 -35 20 -4 16 -14 20 -50 20 -37 0 -47
-4 -52 -20 -4 -14 -15 -20 -35 -20 l-28 0 35 92 c46 124 49 128 81 128 26 0
31 -7 64 -92z m713 76 c54 -35 57 -134 5 -178 -40 -33 -64 -39 -104 -26 -55
18 -81 54 -81 112 0 43 4 53 33 79 26 23 42 29 78 29 24 0 56 -7 69 -16z m466
1 c48 -25 63 -85 38 -148 -16 -39 -57 -57 -129 -57 l-60 0 0 110 0 110 60 0
c36 0 74 -7 91 -15z"/>
<path d="M1080 370 c0 -30 2 -31 38 -28 32 3 37 6 37 28 0 22 -5 25 -37 28
-36 3 -38 2 -38 -28z"/>
<path d="M1318 345 l-15 -45 34 0 c30 0 34 3 28 18 -4 9 -10 27 -12 40 -9 38
-20 34 -35 -13z"/>
<path d="M2008 390 c-22 -13 -33 -72 -19 -99 24 -44 91 -38 117 10 14 28 14
33 -3 62 -20 34 -62 46 -95 27z m60 -57 c5 -17 -26 -29 -40 -15 -6 6 -7 15 -3
22 9 14 37 9 43 -7z"/>
<path d="M2480 330 c0 -70 0 -70 28 -70 46 0 72 25 72 70 0 45 -26 70 -72 70
-28 0 -28 0 -28 -70z"/>
</g>
</svg>
