<?xml version="1.0" standalone="no"?>
<!DOCTYPE svg PUBLIC "-//W3C//DTD SVG 20010904//EN"
 "http://www.w3.org/TR/2001/REC-SVG-20010904/DTD/svg10.dtd">
<svg version="1.0" xmlns="http://www.w3.org/2000/svg"
 width="300.000000pt" height="307.000000pt" viewBox="0 0 300.000000 307.000000"
 preserveAspectRatio="xMidYMid meet">
<metadata>
Created by potrace 1.10, written by Peter Selinger 2001-2011
</metadata>
<g transform="translate(0.000000,307.000000) scale(0.100000,-0.100000)"
fill="#000000" stroke="none">
<path d="M1063 1705 c-12 -5 -30 -27 -40 -50 l-18 -40 -70 0 -69 1 -10 33
c-13 44 -49 68 -81 53 -17 -8 -33 -8 -55 -1 -23 8 -34 8 -46 -2 -26 -21 -37
-50 -25 -62 22 -22 13 -36 -19 -27 -16 5 -57 7 -90 5 -55 -3 -62 -1 -80 23
-63 79 -153 97 -209 41 l-31 -31 0 -124 c0 -111 2 -126 20 -144 27 -27 37 -25
74 15 35 38 46 43 46 20 0 -8 9 -23 21 -34 17 -15 27 -17 52 -10 18 5 33 9 35
9 1 0 -1 -19 -4 -41 -6 -36 -4 -44 17 -60 50 -38 141 -9 172 55 13 29 34 37
97 36 14 0 36 0 50 1 14 0 35 0 48 -1 12 -1 55 -1 95 -1 39 0 83 -1 97 -1 110
-4 208 -1 224 6 17 8 18 7 12 -10 -18 -42 -17 -52 7 -78 56 -61 187 -3 187 83
0 23 10 27 27 10 15 -15 158 -25 175 -12 7 5 67 7 133 5 115 -4 211 -5 275 -3
17 0 38 0 48 0 9 0 50 2 90 4 40 1 76 -1 78 -5 3 -5 9 -6 14 -3 16 10 40 -7
40 -29 1 -44 51 -77 88 -57 11 6 25 24 32 41 8 19 25 36 44 43 30 12 51 12
222 0 68 -4 72 -3 92 22 17 21 19 31 11 46 -7 13 -6 32 1 60 12 45 6 92 -15
109 -7 6 -44 12 -81 13 l-69 2 -20 43 c-33 71 -93 64 -113 -12 -8 -30 -10 -31
-58 -28 -50 4 -103 -11 -115 -30 -5 -8 -15 -6 -34 6 -16 11 -52 19 -95 21 -39
2 -74 6 -80 10 -5 3 -10 1 -10 -4 0 -6 -10 -11 -22 -11 -12 0 -29 -7 -38 -15
-14 -12 -19 -12 -44 0 -28 15 -61 17 -206 13 -97 -3 -145 12 -154 47 -12 48
-102 75 -180 54 -28 -8 -38 -18 -52 -53 -16 -38 -23 -45 -54 -48 -66 -9 -109
2 -124 31 -29 55 -59 72 -127 74 -35 1 -74 -2 -86 -8z m-673 -50 c0 -20 5 -25
25 -25 l25 0 0 -120 0 -120 -25 0 c-23 0 -25 3 -25 50 l0 50 -45 0 -45 0 0
-50 c0 -47 -2 -50 -25 -50 l-25 0 0 122 c0 111 2 124 22 145 17 18 32 23 70
23 45 0 48 -2 48 -25z m340 0 c0 -21 -5 -25 -30 -25 -25 0 -30 4 -30 25 0 21
5 25 30 25 25 0 30 -4 30 -25z m90 -120 l0 -145 -25 0 -25 0 0 145 0 145 25 0
25 0 0 -145z m405 120 c32 -31 34 -75 3 -75 l-21 0 21 -23 c18 -19 22 -35 22
-96 l0 -72 -95 3 -96 3 -2 143 -2 142 73 0 c64 0 76 -3 97 -25z m430 0 l30
-25 -77 0 c-78 0 -78 0 -78 -26 0 -26 1 -27 50 -21 50 6 50 6 50 -22 0 -28 -1
-28 -50 -23 l-50 5 0 -52 0 -51 75 0 c73 0 75 -1 75 -25 0 -24 -2 -25 -72 -25
-64 0 -75 3 -100 27 -28 26 -28 28 -28 145 l0 118 73 0 c61 -1 76 -4 102 -25z
m975 -121 l0 -145 -25 3 -26 3 -2 143 -2 142 28 0 27 0 0 -146z m-2000 -68 c0
-109 -2 -122 -22 -143 -17 -18 -32 -23 -75 -23 -50 0 -53 1 -53 25 0 23 3 25
50 25 45 0 50 2 50 23 0 20 -5 22 -46 22 l-46 0 1 93 c0 50 0 93 1 95 0 1 32
2 70 2 l70 0 0 -119z m94 21 c1 -97 1 -98 -22 -95 -23 3 -24 6 -23 96 0 50 0
95 1 98 0 3 10 4 21 2 21 -3 22 -9 23 -101z m286 51 c0 -44 -2 -48 -23 -48
-13 0 -34 -11 -47 -25 l-23 -25 46 0 c43 0 47 -2 47 -25 0 -24 -2 -25 -70 -25
l-70 0 0 98 0 97 70 0 70 0 0 -47z m330 -23 c0 -73 1 -75 25 -75 24 0 25 2 25
75 0 73 1 75 25 75 l25 0 0 -122 c0 -111 -2 -124 -22 -145 -17 -18 -32 -23
-75 -23 -50 0 -53 1 -53 25 0 23 3 25 50 25 46 0 50 2 50 24 0 22 -3 23 -50
18 l-50 -5 0 102 0 101 25 0 c24 0 25 -2 25 -75z m430 47 c0 -20 14 -41 50
-77 57 -56 67 -95 25 -95 -20 0 -25 5 -25 25 0 20 -5 25 -25 25 -20 0 -25 -5
-25 -25 0 -20 -5 -25 -25 -25 -23 0 -25 3 -25 50 0 47 2 50 26 50 24 0 22 3
-28 50 l-53 49 53 1 c50 0 52 -1 52 -28z m95 -2 c0 -20 -5 -25 -25 -25 -19 0
-24 5 -23 23 1 34 1 34 26 30 16 -2 22 -10 22 -28z m169 1 c23 -22 26 -32 26
-98 l0 -73 -75 0 -75 0 0 50 c0 44 3 50 20 50 24 0 70 28 70 42 0 7 -18 9 -45
6 -44 -5 -45 -5 -45 22 0 28 2 28 49 27 37 -2 56 -8 75 -26z m281 -1 c22 -21
25 -32 25 -97 0 -71 -1 -73 -25 -73 -24 0 -25 2 -25 76 0 72 -1 75 -22 72 -22
-3 -23 -7 -20 -76 l4 -74 -28 4 c-27 3 -27 3 -25 76 2 71 2 72 -23 72 -26 0
-26 -1 -26 -75 0 -73 -1 -75 -25 -75 -25 0 -25 0 -25 98 l0 97 95 -1 c85 -1
98 -3 120 -24z m215 -73 l0 -99 -47 3 -48 3 3 -47 c4 -46 3 -47 -25 -47 l-28
0 3 142 3 143 69 0 70 0 0 -98z m290 51 c0 -44 -2 -48 -24 -48 -14 0 -38 -11
-53 -25 l-28 -24 53 -1 c49 0 52 -2 52 -25 0 -24 -2 -25 -75 -25 l-75 0 0 98
0 97 75 0 75 0 0 -47z m-1135 -18 c15 -16 16 -23 6 -33 -14 -14 -81 -16 -81
-2 0 6 -5 3 -10 -5 -8 -12 -10 -10 -10 9 0 16 4 21 14 18 8 -3 22 3 32 13 24
24 27 24 49 0z"/>
<path d="M300 1586 l0 -44 45 -4 45 -3 0 47 0 48 -45 0 -45 0 0 -44z"/>
<path d="M1102 1608 c3 -20 10 -23 51 -26 45 -3 47 -2 47 22 0 24 -3 26 -51
26 -47 0 -50 -2 -47 -22z"/>
<path d="M1104 1490 l0 -50 48 0 48 0 0 50 0 50 -48 0 -48 0 0 -50z"/>
<path d="M530 1490 c0 -47 2 -50 25 -50 23 0 25 3 25 50 0 47 -2 50 -25 50
-23 0 -25 -3 -25 -50z"/>
<path d="M917 1533 c-4 -3 -7 -15 -7 -25 0 -13 7 -18 25 -18 20 0 25 5 25 25
0 18 -5 25 -18 25 -10 0 -22 -3 -25 -7z"/>
<path d="M1960 1465 c0 -20 5 -25 25 -25 20 0 25 5 25 25 0 20 -5 25 -25 25
-20 0 -25 -5 -25 -25z"/>
<path d="M2439 1538 c0 -2 -2 -24 -4 -50 -2 -45 -1 -48 21 -48 22 0 24 4 24
50 0 43 -3 50 -20 50 -11 0 -20 -1 -21 -2z"/>
<path d="M2720 1515 c0 -20 5 -25 25 -25 20 0 25 5 25 25 0 20 -5 25 -25 25
-20 0 -25 -5 -25 -25z"/>
</g>
</svg>
