<?xml version="1.0" standalone="no"?>
<!DOCTYPE svg PUBLIC "-//W3C//DTD SVG 20010904//EN"
 "http://www.w3.org/TR/2001/REC-SVG-20010904/DTD/svg10.dtd">
<svg version="1.0" xmlns="http://www.w3.org/2000/svg"
 width="225.000000pt" height="225.000000pt" viewBox="0 0 225.000000 225.000000"
 preserveAspectRatio="xMidYMid meet">
<metadata>
Created by potrace 1.10, written by Peter Selinger 2001-2011
</metadata>
<g transform="translate(0.000000,225.000000) scale(0.100000,-0.100000)"
fill="#000000" stroke="none">
<path d="M395 1360 l280 -280 283 0 283 0 -1 238 c-1 130 -1 255 -1 277 l1 40
278 -278 277 -277 0 280 0 280 -276 0 -275 0 -274 -275 c-151 -151 -278 -275
-282 -275 -5 0 -8 124 -8 275 l0 275 -282 0 -283 0 280 -280z m73 244 l173 -5
-2 -221 c-2 -182 -4 -218 -15 -204 -7 11 -18 15 -25 10 -8 -4 -10 -3 -5 4 4 7
-4 23 -19 36 -15 14 -24 29 -21 34 3 6 -2 16 -11 23 -9 8 -14 9 -10 3 4 -7 0
-15 -9 -18 -8 -3 -13 -2 -10 3 3 4 -6 18 -19 31 -17 16 -23 31 -21 47 3 13 1
21 -5 18 -5 -4 -6 -12 -2 -18 8 -14 -16 5 -60 46 -26 24 -28 29 -16 45 13 15
12 16 -3 4 -14 -12 -27 -2 -102 74 -47 47 -83 91 -80 96 4 6 24 7 48 3 22 -4
119 -9 214 -11z m1255 9 c-24 -2 -62 -2 -85 0 -24 2 -5 4 42 4 47 0 66 -2 43
-4z m-360 -16 c3 5 20 8 39 7 18 -1 106 -2 196 -2 l162 -2 -2 -217 c-3 -182
-5 -217 -18 -220 -11 -4 -12 -2 -2 5 9 6 -8 29 -67 84 -44 42 -83 73 -87 69
-4 -3 -4 -1 -1 5 3 6 -16 32 -43 59 -27 27 -46 53 -43 58 3 6 1 7 -5 3 -7 -4
-27 9 -47 29 -20 19 -41 32 -47 29 -7 -4 -8 -2 -4 4 4 7 -12 32 -36 58 -27 29
-35 43 -21 36 12 -7 24 -9 26 -5z m-159 -53 c4 -10 2 -13 -6 -8 -8 5 -9 2 -5
-9 3 -9 2 -19 -3 -22 -6 -4 -10 -11 -10 -16 0 -6 4 -7 10 -4 6 4 9 -61 7 -175
-1 -112 2 -182 8 -184 23 -10 -356 -10 -407 0 -22 4 -25 8 -15 19 7 7 16 10
21 7 5 -3 6 0 2 6 -6 10 49 74 58 65 2 -2 7 4 10 15 5 13 13 18 25 15 10 -3
22 0 25 6 5 7 1 8 -9 5 -11 -5 -14 -2 -9 10 4 10 13 15 20 12 8 -3 11 0 7 10
-3 8 -2 14 3 13 22 -4 33 2 28 16 -4 8 -2 15 2 15 5 1 23 12 39 26 17 15 24
23 16 19 -10 -6 -12 -4 -7 4 5 7 14 10 22 7 8 -3 14 1 14 9 0 18 29 47 40 40
5 -3 11 4 15 15 4 11 11 18 16 15 5 -4 9 0 9 8 0 8 8 21 18 28 15 13 16 12 3
-3 -12 -16 -11 -18 3 -18 14 0 17 7 16 35 0 5 22 33 26 35 1 0 5 -7 8 -16z"/>
<path d="M680 877 l0 -133 73 4 c53 3 77 9 91 22 23 23 24 75 1 100 -14 15
-14 18 0 30 24 20 19 66 -11 89 -21 16 -41 21 -90 21 l-64 0 0 -133z m134 87
c36 -35 10 -64 -56 -64 l-48 0 0 40 0 40 44 0 c27 0 51 -6 60 -16z m4 -106
c16 -16 15 -68 0 -73 -7 -2 -34 -5 -60 -8 l-48 -5 0 49 0 49 48 0 c26 0 53 -5
60 -12z"/>
<path d="M949 987 c-69 -46 -76 -142 -14 -204 28 -28 40 -33 79 -33 112 0 172
89 126 185 -37 75 -122 99 -191 52z m149 -42 c52 -61 8 -165 -70 -165 -84 0
-133 101 -79 164 38 44 111 44 149 1z"/>
<path d="M1206 989 c-52 -41 -23 -111 53 -124 49 -8 72 -32 60 -62 -11 -30
-48 -38 -94 -18 -31 12 -40 13 -47 3 -11 -18 16 -36 67 -44 81 -12 137 45 104
105 -10 18 -32 31 -71 44 -31 10 -59 24 -62 32 -15 41 34 67 88 47 23 -9 32
-9 38 1 12 19 10 24 -14 31 -46 12 -95 6 -122 -15z"/>
<path d="M1400 875 c0 -128 1 -135 20 -135 19 0 20 7 20 101 l0 101 64 -98
c90 -137 96 -135 96 32 0 111 -3 134 -15 134 -11 0 -15 -20 -17 -100 l-3 -101
-65 100 c-92 141 -100 138 -100 -34z"/>
<path d="M1670 885 c0 -139 0 -139 18 -141 9 -2 12 30 12 132 0 112 -2 134
-15 134 -13 0 -15 -21 -15 -125z"/>
<path d="M1760 871 c0 -118 2 -132 16 -129 15 3 17 16 15 93 l-2 90 90 -89
c78 -78 126 -108 134 -87 1 3 -55 62 -125 131 l-128 124 0 -133z"/>
<path d="M1005 705 c-22 -8 -41 -15 -42 -15 -1 0 -11 -15 -22 -34 -28 -45 -28
-114 0 -150 60 -76 171 -73 219 7 35 56 28 67 -40 67 -49 0 -58 -3 -54 -15 4
-9 19 -15 40 -15 41 0 43 -11 8 -39 -37 -29 -60 -34 -97 -22 -103 34 -78 191
31 191 40 0 92 -35 92 -62 0 -8 5 -7 16 4 22 22 2 52 -52 78 -47 23 -47 23
-99 5z"/>
<path d="M1613 713 l-83 -4 0 -129 0 -130 85 0 c69 0 85 3 85 15 0 12 -14 15
-70 15 l-70 0 0 45 0 45 70 0 c56 0 70 3 70 15 0 12 -14 15 -70 15 l-70 0 0
40 0 40 70 0 c63 0 70 2 70 20 0 11 -1 19 -2 18 -2 -1 -40 -4 -85 -5z"/>
<path d="M680 582 c0 -111 2 -132 15 -132 12 0 15 17 15 92 l0 93 94 -94 c65
-65 99 -92 113 -89 15 2 -7 30 -109 132 l-128 130 0 -132z"/>
<path d="M1230 580 c0 -123 1 -130 20 -130 19 0 20 7 20 130 0 123 -1 130 -20
130 -19 0 -20 -7 -20 -130z"/>
<path d="M1320 580 l0 -130 90 0 c73 0 90 3 90 15 0 12 -14 15 -70 15 l-70 0
0 115 c0 108 -1 115 -20 115 -19 0 -20 -7 -20 -130z"/>
</g>
</svg>
