<?xml version="1.0" standalone="no"?>
<!DOCTYPE svg PUBLIC "-//W3C//DTD SVG 20010904//EN"
 "http://www.w3.org/TR/2001/REC-SVG-20010904/DTD/svg10.dtd">
<svg version="1.0" xmlns="http://www.w3.org/2000/svg"
 width="259.000000pt" height="194.000000pt" viewBox="0 0 259.000000 194.000000"
 preserveAspectRatio="xMidYMid meet">
<metadata>
Created by potrace 1.10, written by Peter Selinger 2001-2011
</metadata>
<g transform="translate(0.000000,194.000000) scale(0.100000,-0.100000)"
fill="#000000" stroke="none">
<path d="M760 1855 c0 0 -1 -152 -3 -338 l-2 -337 114 0 c95 0 122 4 157 20
73 36 79 58 79 320 0 251 -5 273 -68 307 -26 15 -157 28 -277 28z m83 -54
c-11 -21 -10 -539 0 -568 8 -21 5 -23 -22 -23 -23 0 -32 5 -36 23 -3 12 -5
147 -3 300 3 294 4 301 50 289 14 -3 17 -9 11 -21z m195 -13 c37 -40 42 -73
42 -274 0 -209 -7 -247 -51 -278 -35 -24 -44 -19 -23 12 17 24 19 49 19 267 0
218 -2 243 -19 268 -15 21 -15 27 -4 27 8 0 24 -10 36 -22z m-67 -7 l24 -19 0
-246 c0 -281 2 -275 -84 -284 l-51 -5 0 287 0 286 44 0 c28 0 52 -7 67 -19z"/>
<path d="M1150 1823 l0 -33 55 0 55 0 0 -305 0 -305 60 0 60 0 0 305 0 305 55
0 55 0 0 33 0 32 -170 0 -170 0 0 -32z m208 1 c19 -5 20 -9 10 -22 -10 -11
-14 -91 -18 -301 l-5 -286 -25 0 -25 0 -3 285 c-1 169 -6 288 -12 294 -15 15
-12 24 8 29 26 7 45 7 70 1z"/>
<path d="M1540 1570 c0 -257 2 -289 18 -319 30 -56 72 -73 175 -69 88 3 89 3
123 40 l34 38 2 285 c0 157 1 290 2 296 1 7 -19 12 -51 13 l-52 1 -3 -293 -3
-294 -24 -19 c-33 -27 -66 -24 -90 7 -20 26 -21 38 -21 313 l0 286 -55 0 -55
0 0 -285z m74 234 c3 -9 6 -127 6 -263 0 -226 2 -250 20 -286 11 -21 17 -41
15 -44 -8 -8 -59 34 -72 60 -14 26 -19 529 -6 542 11 12 31 7 37 -9z m250 0
c3 -9 6 -123 6 -255 0 -178 -3 -248 -13 -272 -16 -37 -36 -56 -65 -62 -20 -4
-20 -3 1 33 21 35 22 51 25 305 3 251 4 267 22 267 10 0 21 -7 24 -16z"/>
<path d="M865 934 c-27 -13 -87 -41 -133 -62 l-82 -38 137 -60 138 -60 120 40
c116 39 125 40 250 40 125 0 134 -1 250 -40 l120 -40 135 59 c74 32 136 59
137 60 1 1 -60 30 -135 65 l-137 62 -75 -25 c-116 -40 -229 -65 -295 -65 -66
0 -179 25 -294 64 -41 15 -77 26 -80 25 -3 0 -28 -11 -56 -25z m217 -55 c110
-32 136 -45 106 -53 -7 -2 -31 -9 -53 -14 -22 -6 -78 -23 -125 -38 l-85 -27
-88 38 c-48 21 -87 44 -87 50 0 19 151 85 185 81 17 -2 83 -19 147 -37z m682
1 c47 -22 86 -43 86 -46 0 -3 -21 -14 -47 -25 -27 -12 -68 -30 -93 -41 l-44
-20 -121 37 c-66 20 -128 39 -137 42 -31 8 -20 21 23 28 23 4 78 20 123 35 44
16 91 29 103 29 12 1 60 -17 107 -39z"/>
<path d="M865 624 c-27 -13 -87 -41 -132 -62 l-83 -38 136 -64 137 -63 113 36
c222 71 296 71 516 1 l115 -37 137 64 c123 57 135 64 114 73 -12 6 -74 34
-137 64 l-114 53 -91 -30 c-240 -80 -335 -79 -575 3 -41 15 -77 26 -80 25 -3
0 -28 -11 -56 -25z m160 -39 c96 -30 144 -44 169 -47 38 -6 13 -23 -63 -45
-42 -12 -105 -30 -141 -41 l-66 -19 -83 37 c-45 21 -87 42 -92 47 -11 11 142
92 176 93 11 0 56 -11 100 -25z m734 -13 c41 -20 76 -42 78 -49 5 -14 -139
-83 -172 -83 -12 0 -67 13 -121 29 -55 16 -119 34 -143 41 -23 6 -41 14 -38
16 3 3 31 11 63 19 33 7 93 25 134 39 41 13 86 25 100 25 14 0 58 -17 99 -37z"/>
<path d="M865 314 c-27 -13 -87 -41 -132 -62 l-83 -38 136 -64 137 -63 113 36
c222 71 296 71 516 1 l115 -37 137 64 c123 57 135 64 114 73 -12 6 -74 34
-137 64 l-114 53 -91 -30 c-240 -80 -335 -79 -575 3 -41 15 -77 26 -80 25 -3
0 -28 -11 -56 -25z m217 -56 c81 -23 146 -43 145 -45 -2 -1 -59 -19 -128 -39
-68 -20 -136 -40 -150 -44 -20 -6 -42 -1 -90 22 -34 16 -74 34 -87 39 -13 5
-22 15 -20 22 4 13 143 85 168 87 8 0 81 -18 162 -42z m684 0 c52 -26 80 -46
75 -51 -5 -5 -47 -26 -92 -47 l-83 -37 -75 24 c-42 13 -109 31 -149 41 -39 9
-71 21 -69 27 2 5 8 10 13 10 19 1 111 27 179 50 39 13 80 24 93 24 13 1 61
-18 108 -41z"/>
</g>
</svg>
