<?xml version="1.0" standalone="no"?>
<!DOCTYPE svg PUBLIC "-//W3C//DTD SVG 20010904//EN"
 "http://www.w3.org/TR/2001/REC-SVG-20010904/DTD/svg10.dtd">
<svg version="1.0" xmlns="http://www.w3.org/2000/svg"
 width="300.000000pt" height="152.000000pt" viewBox="0 0 300.000000 152.000000"
 preserveAspectRatio="xMidYMid meet">
<metadata>
Created by potrace 1.10, written by Peter Selinger 2001-2011
</metadata>
<g transform="translate(0.000000,152.000000) scale(0.100000,-0.100000)"
fill="#000000" stroke="none">
<path d="M1522 1060 c3 -33 1 -35 -26 -35 -27 0 -29 -3 -30 -42 -1 -39 1 -42
28 -45 l28 -3 -1 -122 c-3 -171 11 -192 124 -193 l70 0 -1 42 c-2 38 -4 43
-24 40 -43 -5 -50 13 -50 130 l0 110 37 -4 36 -3 0 45 0 45 -39 0 c-38 0 -39
1 -39 33 l0 34 -58 1 -58 2 3 -35z m117 -73 c1 -4 -9 -21 -20 -36 -18 -25 -21
-42 -20 -122 1 -51 6 -98 11 -104 6 -7 7 -15 3 -18 -3 -4 5 -15 18 -26 l24
-20 -35 -1 c-32 0 -37 4 -48 33 -7 18 -12 79 -12 134 0 86 -3 104 -21 127
l-20 26 27 35 26 35 33 -28 c19 -15 34 -31 34 -35z"/>
<path d="M709 1030 c-105 -31 -160 -176 -110 -286 22 -49 60 -80 113 -94 38
-11 56 -9 111 12 24 9 27 15 27 60 l0 50 -25 -16 c-37 -24 -73 -20 -106 13
-79 80 18 219 109 155 22 -15 22 -15 22 31 0 44 -1 47 -42 65 -47 21 -59 22
-99 10z m31 -56 c-3 -5 -9 -8 -13 -6 -4 1 -10 -5 -13 -13 -3 -8 -10 -13 -14
-10 -5 3 -11 -4 -15 -15 -3 -11 -10 -20 -15 -20 -5 0 -12 -20 -16 -45 -7 -47
9 -105 29 -105 6 0 8 -3 4 -6 -9 -9 27 -41 41 -36 6 2 12 -1 12 -7 0 -6 8 -8
18 -5 14 5 15 4 2 -5 -23 -14 -102 -2 -96 15 3 8 1 13 -5 11 -17 -3 -42 83
-37 128 7 60 35 112 66 123 32 11 59 9 52 -4z"/>
<path d="M1175 1025 c-53 -19 -111 -82 -125 -136 -28 -103 14 -220 93 -258 24
-12 55 -21 70 -21 25 0 27 3 27 43 0 37 -4 44 -28 55 -39 17 -57 55 -56 116 0
59 24 103 60 112 21 5 24 12 24 55 0 54 -3 56 -65 34z m-25 -101 c-27 -31 -30
-42 -30 -99 0 -39 4 -65 11 -65 5 0 7 -4 4 -10 -8 -13 19 -52 30 -42 5 4 5 2
1 -5 -3 -6 -2 -14 4 -18 5 -3 10 -12 10 -20 0 -8 -20 5 -46 28 -25 23 -41 43
-35 45 7 2 6 11 -4 25 -8 12 -15 40 -15 62 1 44 37 126 59 133 9 3 11 0 6 -8
-5 -8 -3 -11 6 -8 8 3 13 11 11 17 -1 7 2 10 8 6 7 -4 -1 -20 -20 -41z"/>
<path d="M1260 993 c0 -45 2 -50 30 -60 35 -13 50 -46 50 -111 0 -53 -30 -111
-61 -119 -15 -4 -19 -14 -19 -50 l0 -46 37 6 c93 15 163 106 163 210 0 107
-67 191 -167 212 l-33 7 0 -49z m123 -47 c8 8 37 -87 37 -123 0 -19 -6 -49
-14 -68 -8 -18 -11 -36 -8 -40 4 -4 2 -5 -4 -3 -7 2 -21 -8 -32 -20 -12 -13
-26 -21 -32 -17 -7 4 -2 15 15 30 27 26 33 40 13 30 -7 -4 -5 0 5 8 37 31 16
174 -31 209 -9 7 -18 19 -20 27 -2 9 10 4 31 -12 19 -14 37 -24 40 -21z"/>
<path d="M1865 1024 c-53 -19 -89 -56 -115 -117 -53 -123 21 -278 140 -294
l40 -6 0 45 c0 38 -4 46 -26 56 -71 33 -66 210 7 229 15 4 19 15 19 54 0 54
-3 56 -65 33z m-7 -73 c-7 -9 -17 -19 -21 -22 -5 -3 -9 -10 -9 -15 0 -5 -4
-19 -9 -32 -12 -32 -11 -109 1 -117 6 -4 8 -11 4 -16 -3 -6 8 -23 25 -40 35
-33 37 -39 17 -39 -15 0 -70 46 -72 58 0 4 -6 27 -13 52 -11 36 -10 52 0 85 7
22 13 47 14 55 0 8 7 15 15 15 8 1 14 6 13 13 -2 7 3 11 10 10 6 -2 11 2 10 9
-2 7 4 10 12 6 13 -4 13 -8 3 -22z"/>
<path d="M1954 993 c2 -35 6 -48 22 -53 80 -31 84 -203 5 -233 -22 -8 -26 -15
-26 -53 0 -50 11 -54 73 -29 80 34 122 102 122 200 0 102 -44 170 -129 200
-66 23 -69 21 -67 -32z m141 -83 c8 -16 15 -50 15 -77 0 -53 -27 -133 -44
-133 -6 0 -17 -9 -24 -20 -12 -20 -32 -27 -32 -11 0 5 13 23 29 40 16 17 25
31 21 31 -5 0 -1 14 7 31 20 40 7 146 -16 141 -12 -3 -12 0 -1 12 18 23 27 20
45 -14z"/>
<path d="M870 820 c-1 -229 -3 -237 -65 -247 -28 -4 -43 -1 -65 16 -22 15 -44
21 -85 21 -54 0 -56 -1 -50 -22 23 -75 71 -103 180 -103 89 0 131 17 169 68
20 27 21 43 24 250 l3 222 -55 0 -56 0 0 -205z m72 1 c1 -185 0 -202 -20 -225
-10 -11 -11 -16 -5 -12 9 5 11 2 7 -8 -3 -9 -10 -13 -15 -10 -5 3 -9 -3 -9
-12 0 -14 -3 -15 -11 -7 -9 9 -8 20 4 45 12 26 15 67 13 198 -1 91 0 170 2
177 2 6 10 9 18 6 11 -4 14 -35 16 -152z m-218 -266 c25 -19 13 -31 -16 -17
-15 7 -18 11 -8 12 10 1 9 4 -5 10 -13 6 -15 9 -5 9 8 0 24 -6 34 -14z"/>
<path d="M2225 1000 c-1 -3 -3 -31 -3 -62 l0 -58 64 0 65 0 -3 61 -3 61 -58 1
c-33 1 -60 0 -62 -3z"/>
<path d="M2229 718 c-1 -2 -2 -29 -4 -60 l-3 -58 34 0 c19 0 34 -5 34 -10 0
-21 -31 -70 -50 -80 -18 -9 -29 -50 -15 -50 15 0 63 31 84 54 20 22 26 40 31
109 4 45 5 85 3 90 -4 6 -111 11 -114 5z"/>
<path d="M1346 536 c-10 -15 -12 -27 -6 -31 6 -3 10 -26 10 -51 0 -32 4 -44
15 -44 11 0 15 12 15 44 0 26 5 46 13 49 9 4 8 8 -3 17 -11 9 -12 13 -2 17 19
7 14 23 -7 23 -10 0 -26 -11 -35 -24z"/>
<path d="M996 514 c-22 -22 -20 -67 4 -89 24 -22 39 -12 22 15 -16 26 -15 45
2 59 10 8 16 9 21 1 9 -15 35 -12 35 4 0 28 -59 35 -84 10z"/>
<path d="M1104 505 c-18 -28 -9 -71 19 -89 25 -16 69 4 80 37 21 64 -62 108
-99 52z m60 -11 c20 -20 20 -29 0 -49 -12 -12 -19 -13 -30 -4 -17 14 -18 41
-2 57 15 15 13 15 32 -4z"/>
<path d="M1220 469 c0 -46 3 -59 15 -59 11 0 15 12 15 49 0 44 2 49 20 44 16
-4 20 -14 20 -49 0 -32 4 -44 15 -44 11 0 15 12 15 49 0 56 -10 68 -62 68
l-38 1 0 -59z"/>
<path d="M1427 512 c-46 -51 23 -138 71 -90 19 19 14 26 -20 24 -29 -1 -33 3
-36 25 -3 29 16 43 39 28 11 -7 9 -10 -8 -15 -36 -10 -27 -26 10 -19 42 9 42
10 23 40 -20 30 -56 33 -79 7z"/>
<path d="M1530 469 c0 -51 3 -60 17 -57 9 2 16 6 15 11 -1 4 -2 30 -2 57 0 38
-4 50 -15 50 -12 0 -15 -13 -15 -61z"/>
<path d="M1614 505 c-34 -52 15 -112 72 -87 33 16 22 33 -16 25 -34 -6 -51 18
-33 46 12 19 35 21 41 4 2 -8 -5 -13 -18 -13 -12 0 -19 -4 -15 -10 10 -16 65
-7 65 12 0 48 -69 64 -96 23z"/>
<path d="M1726 520 c-1 -3 -1 -27 -1 -55 0 -38 4 -50 15 -50 12 0 14 11 12 47
-3 46 -2 47 20 39 19 -7 23 -16 23 -47 0 -29 4 -40 18 -42 13 -3 17 4 17 32 0
19 -4 46 -10 60 -8 22 -15 25 -50 23 -23 -1 -42 -4 -44 -7z"/>
<path d="M1856 514 c-39 -39 -3 -113 49 -100 25 7 43 31 31 43 -3 3 -14 -1
-24 -10 -30 -27 -57 15 -33 51 7 12 12 12 29 1 25 -16 40 -5 22 16 -16 20 -54
19 -74 -1z"/>
<path d="M1966 508 c-24 -33 -20 -65 10 -84 19 -13 32 -15 51 -8 43 15 40 34
-3 31 -30 -1 -39 2 -42 16 -5 23 15 47 34 40 21 -8 17 -23 -7 -23 -11 0 -18
-4 -14 -9 3 -5 19 -9 35 -9 22 1 30 6 30 19 0 46 -67 66 -94 27z"/>
<path d="M2093 523 c-25 -9 -14 -44 17 -56 17 -6 30 -18 30 -25 0 -9 -6 -12
-15 -8 -8 3 -22 9 -30 12 -10 4 -15 0 -15 -10 0 -18 39 -31 68 -22 41 13 33
66 -9 66 -19 0 -35 17 -25 28 4 3 16 1 26 -6 25 -15 30 -15 30 2 0 22 -44 33
-77 19z"/>
<path d="M1052 448 c-14 -14 -16 -38 -4 -38 12 0 32 23 32 37 0 16 -12 17 -28
1z"/>
</g>
</svg>
