<?xml version="1.0" standalone="no"?>
<!DOCTYPE svg PUBLIC "-//W3C//DTD SVG 20010904//EN"
 "http://www.w3.org/TR/2001/REC-SVG-20010904/DTD/svg10.dtd">
<svg version="1.0" xmlns="http://www.w3.org/2000/svg"
 width="225.000000pt" height="225.000000pt" viewBox="0 0 225.000000 225.000000"
 preserveAspectRatio="xMidYMid meet">
<metadata>
Created by potrace 1.10, written by Peter Selinger 2001-2011
</metadata>
<g transform="translate(0.000000,225.000000) scale(0.100000,-0.100000)"
fill="#000000" stroke="none">
<path d="M67 1434 c-4 -4 -3 -12 1 -18 3 -6 7 -117 7 -246 0 -182 3 -235 13
-234 6 1 32 2 57 3 l45 1 -1 168 c0 92 -4 176 -9 187 -5 11 -9 18 -10 15 -3
-8 -7 -96 -10 -206 -1 -55 -6 -107 -11 -115 -5 -8 -9 -10 -9 -5 0 5 -6 3 -14
-3 -11 -9 -15 -5 -19 21 -7 43 -1 388 7 396 4 3 86 5 183 5 133 -1 178 -5 184
-15 7 -10 9 -9 9 5 0 22 26 22 38 0 13 -22 -6 -41 -44 -43 -45 -3 -56 -1 -49
10 3 6 2 10 -4 10 -5 0 -11 -4 -13 -10 -1 -5 -50 -10 -108 -11 -57 -1 -110 -4
-117 -6 -39 -15 7 -20 177 -21 l190 0 1 26 c0 15 2 42 3 60 l4 32 -247 0
c-136 0 -251 -3 -254 -6z"/>
<path d="M959 1352 c0 -4 -1 -100 -3 -214 l-2 -208 25 0 26 0 -2 202 c-2 112
-3 206 -3 209 0 9 -40 19 -41 11z"/>
<path d="M1649 1355 c-3 -2 -17 -6 -32 -9 -41 -7 -82 -41 -106 -86 -17 -33
-21 -59 -21 -130 0 -82 2 -93 28 -129 39 -55 72 -71 148 -71 80 0 124 20 124
55 0 29 -21 33 -44 9 -9 -8 -40 -18 -69 -21 -47 -5 -56 -2 -85 22 -18 15 -32
33 -32 41 0 8 -4 14 -10 14 -6 0 -10 33 -10 78 0 112 25 156 99 177 38 11 90
0 113 -23 19 -19 38 -14 38 11 0 14 -10 29 -27 38 -28 16 -106 33 -114 24z"/>
<path d="M1110 1348 c-1 -2 -2 -96 -3 -210 l-3 -208 87 0 c99 0 144 15 189 62
32 33 35 42 45 125 12 107 -38 199 -120 222 -34 9 -194 16 -195 9z m209 -65
c13 -8 26 -24 28 -34 3 -10 9 -19 14 -19 5 0 9 -35 9 -78 0 -125 -33 -168
-132 -177 -89 -8 -85 -17 -82 168 1 89 3 163 3 164 3 9 141 -12 160 -24z"/>
<path d="M1867 1342 c-2 -4 -4 -98 -6 -210 l-3 -203 34 3 33 3 -3 85 c-2 47
-5 127 -8 178 -3 67 -1 93 6 90 13 -4 15 -7 87 -153 102 -204 104 -206 141
-203 l33 3 0 205 1 205 -28 3 -27 4 5 -176 c3 -97 2 -176 -2 -176 -13 0 -28
24 -36 55 -8 35 -73 163 -85 171 -5 3 -9 14 -9 25 0 10 -3 19 -7 19 -5 0 -16
17 -26 39 -17 34 -23 38 -57 39 -22 1 -41 -2 -43 -6z"/>
<path d="M587 1296 c-10 -25 -10 -25 22 -21 16 2 34 -2 40 -9 6 -7 11 -91 12
-209 1 -239 5 -231 -108 -223 -43 3 -133 5 -200 6 l-123 0 0 29 c0 31 13 40
63 43 22 1 17 3 -18 7 -71 9 -75 6 -75 -54 l0 -53 243 -1 242 -1 -2 242 c-2
134 -3 246 -3 251 0 4 -14 7 -31 7 -17 0 -28 -4 -24 -10 3 -5 0 -10 -9 -10 -8
0 -16 5 -18 12 -3 7 -7 5 -11 -6z"/>
</g>
</svg>
