<?xml version="1.0" standalone="no"?>
<!DOCTYPE svg PUBLIC "-//W3C//DTD SVG 20010904//EN"
 "http://www.w3.org/TR/2001/REC-SVG-20010904/DTD/svg10.dtd">
<svg version="1.0" xmlns="http://www.w3.org/2000/svg"
 width="300.000000pt" height="55.000000pt" viewBox="0 0 300.000000 55.000000"
 preserveAspectRatio="xMidYMid meet">
<metadata>
Created by potrace 1.10, written by Peter Selinger 2001-2011
</metadata>
<g transform="translate(0.000000,55.000000) scale(0.100000,-0.100000)"
fill="#000000" stroke="none">
<path d="M750 541 c0 -6 19 -11 41 -11 38 0 41 -2 35 -22 -3 -13 -6 -125 -6
-250 l0 -228 -35 0 c-19 0 -35 -4 -35 -10 0 -6 37 -10 90 -10 53 0 90 4 90 10
0 6 -18 10 -40 10 l-39 0 -3 240 c-2 132 -1 240 2 240 3 -1 83 -115 179 -255
96 -140 178 -252 183 -249 4 3 8 122 8 265 l0 259 30 0 c17 0 30 4 30 9 0 5
-38 10 -85 10 -48 0 -85 -4 -85 -9 0 -6 18 -10 40 -10 l39 0 3 -180 c2 -99 1
-180 -2 -180 -3 1 -59 80 -125 176 -66 97 -124 179 -130 183 -17 14 -185 24
-185 12z"/>
<path d="M1332 462 c3 -87 18 -113 29 -49 12 72 62 117 132 117 l37 0 0 -250
0 -250 -45 0 c-25 0 -45 -4 -45 -10 0 -6 50 -10 130 -10 80 0 130 4 130 10 0
6 -20 10 -45 10 l-45 0 0 250 0 250 35 0 c80 0 125 -39 140 -123 13 -65 25
-40 25 51 l0 87 -240 0 -241 0 3 -83z"/>
<path d="M1856 541 c-5 -7 6 -11 33 -11 l41 0 0 -250 0 -250 -40 0 c-22 0 -40
-4 -40 -10 0 -6 38 -10 95 -10 57 0 95 4 95 10 0 6 -20 10 -45 10 l-45 0 0
242 c0 137 4 238 9 233 4 -6 84 -119 175 -252 92 -134 172 -245 177 -248 5 -4
9 100 9 259 l0 266 35 0 c19 0 35 4 35 9 0 5 -40 9 -90 10 -50 0 -90 -4 -90
-9 0 -6 20 -10 45 -10 l45 0 0 -180 c0 -99 -2 -180 -4 -180 -3 0 -62 83 -132
185 -125 181 -129 185 -163 185 -20 0 -59 3 -87 6 -33 4 -54 3 -58 -5z"/>
<path d="M2454 538 c-3 -5 10 -8 30 -8 l34 0 4 -217 c3 -232 6 -246 55 -279
24 -16 47 -19 150 -19 108 0 125 2 150 21 50 37 53 53 53 282 l0 212 35 0 c19
0 35 4 35 9 0 5 -38 9 -85 10 -47 0 -85 -4 -85 -10 0 -5 18 -9 40 -9 l40 0 0
-200 c0 -231 -7 -261 -64 -285 -45 -19 -137 -19 -181 0 -21 8 -39 25 -45 40
-6 15 -10 121 -10 236 l0 209 40 0 c22 0 40 4 40 9 0 10 -230 9 -236 -1z"/>
<path d="M44 506 c-23 -23 -34 -43 -34 -62 l0 -29 30 37 c61 73 81 80 245 76
l145 -3 37 -38 38 -37 3 -158 c4 -246 -6 -256 -262 -250 l-148 3 -44 48 -44
49 0 -30 c0 -33 36 -77 75 -92 15 -6 98 -10 186 -10 175 0 210 8 247 55 21 26
22 38 22 207 0 271 3 268 -271 268 l-191 0 -34 -34z"/>
<path d="M145 440 c-40 -16 -44 -31 -42 -162 3 -172 -1 -168 169 -168 115 0
130 2 148 20 23 23 22 13 23 152 1 116 -10 152 -47 162 -32 9 -228 6 -251 -4z
m265 -160 l0 -140 -138 0 -139 0 0 139 0 139 139 1 138 1 0 -140z"/>
<path d="M218 375 c-31 -17 -58 -63 -58 -97 0 -35 34 -83 69 -97 106 -44 200
84 124 169 -34 38 -93 49 -135 25z m102 -45 c28 -28 27 -84 -2 -104 -50 -36
-118 -3 -118 55 0 59 78 91 120 49z"/>
</g>
</svg>
