<?xml version="1.0" standalone="no"?>
<!DOCTYPE svg PUBLIC "-//W3C//DTD SVG 20010904//EN"
 "http://www.w3.org/TR/2001/REC-SVG-20010904/DTD/svg10.dtd">
<svg version="1.0" xmlns="http://www.w3.org/2000/svg"
 width="300.000000pt" height="174.000000pt" viewBox="0 0 300.000000 174.000000"
 preserveAspectRatio="xMidYMid meet">
<metadata>
Created by potrace 1.10, written by Peter Selinger 2001-2011
</metadata>
<g transform="translate(0.000000,174.000000) scale(0.100000,-0.100000)"
fill="#000000" stroke="none">
<path d="M1662 1574 c-28 -19 -28 -41 -1 -70 18 -20 22 -39 26 -131 5 -98 7
-110 30 -133 l24 -25 33 37 32 36 16 -29 c9 -15 28 -31 42 -35 l26 -6 -20 -25
c-17 -22 -20 -41 -20 -134 l0 -109 -25 0 c-24 0 -25 3 -25 58 -2 131 -5 160
-24 181 -25 27 -43 27 -67 -1 -16 -20 -18 -41 -19 -164 0 -135 1 -141 24 -163
l24 -22 -24 -24 c-23 -23 -24 -30 -24 -163 0 -134 1 -139 24 -162 25 -22 35
-22 68 2 14 10 20 9 36 -5 23 -21 31 -21 55 0 18 17 21 16 57 -5 48 -27 64
-27 105 -2 31 19 32 19 68 1 42 -22 105 -15 137 14 28 26 43 87 31 130 -6 21
-6 48 -1 66 5 17 6 44 3 60 -6 31 -54 79 -80 79 -8 0 -13 6 -10 13 2 7 16 11
33 9 69 -7 109 -3 140 14 31 17 34 17 52 0 17 -14 35 -17 115 -13 56 2 102 9
111 16 12 10 20 9 41 -5 21 -13 31 -15 50 -6 19 9 31 8 52 -3 63 -33 134 -3
154 65 11 36 10 49 -6 96 -14 42 -16 57 -7 66 22 22 14 72 -17 102 -37 36 -89
39 -131 7 -30 -22 -31 -22 -55 -2 -22 17 -42 19 -160 19 -104 0 -136 -3 -146
-14 -15 -19 -26 -18 -65 7 -32 19 -32 21 -15 38 25 25 34 97 27 216 -6 83 -10
101 -28 116 -26 23 -32 23 -48 4 -16 -19 -39 -19 -61 1 -16 14 -20 14 -43 -2
-25 -15 -28 -15 -45 0 -22 20 -89 21 -115 1 -17 -13 -22 -13 -42 0 -27 17
-115 20 -131 4 -8 -8 -17 -8 -31 0 -31 16 -124 14 -150 -5z m458 -34 c24 -24
27 -70 5 -70 -8 0 -15 9 -15 20 0 27 -32 43 -54 27 -14 -10 -16 -28 -14 -117
l3 -105 27 -3 c22 -3 29 2 34 22 7 31 34 35 34 5 0 -55 -59 -85 -105 -55 -24
16 -25 20 -25 141 0 117 1 125 22 139 31 22 64 20 88 -4z m-310 -5 c0 -9 -9
-15 -25 -15 l-25 0 0 -130 c0 -125 -1 -130 -21 -130 -19 0 -20 5 -17 130 l3
130 -27 0 c-18 0 -28 5 -28 15 0 12 14 15 70 15 56 0 70 -3 70 -15z m160 0 c0
-11 -12 -15 -45 -15 l-45 0 0 -50 0 -50 40 0 c29 0 40 -4 40 -15 0 -11 -11
-15 -40 -15 l-40 0 0 -50 0 -50 45 0 c33 0 45 -4 45 -15 0 -12 -13 -15 -60
-15 l-60 0 0 145 0 145 60 0 c47 0 60 -3 60 -15z m248 -50 l-4 -65 37 0 37 0
-6 65 c-4 61 -4 65 17 65 20 0 21 -4 21 -145 0 -141 -1 -145 -21 -145 -20 0
-21 4 -17 65 l4 65 -36 0 -35 0 3 -65 c3 -60 2 -65 -17 -65 -20 0 -21 5 -21
145 0 141 1 145 21 145 20 0 21 -4 17 -65z m-97 -45 c30 -17 24 -57 -11 -75
l-30 -16 0 51 c0 52 6 58 41 40z m-56 -220 c30 0 31 -7 6 -39 l-18 -23 -26 26
c-14 14 -33 26 -42 26 -18 0 -19 12 -3 28 9 9 17 8 35 -3 12 -8 34 -15 48 -15z
m154 14 c22 20 38 20 57 1 13 -12 11 -15 -18 -23 -19 -5 -41 -21 -54 -39 l-20
-30 -34 40 c-32 38 -33 40 -15 53 16 12 22 12 43 -2 22 -14 25 -14 41 0z
m-459 -189 l0 -135 45 0 c33 0 45 -4 45 -15 0 -12 -14 -15 -62 -15 l-63 0 2
147 c1 82 3 149 3 151 0 1 7 2 15 2 13 0 15 -22 15 -135z m250 114 c0 -18 -4
-20 -45 -13 l-45 6 0 -56 0 -56 40 6 c37 6 40 5 40 -16 0 -20 -3 -21 -40 -15
l-40 7 0 -56 0 -56 45 0 c33 0 45 -4 45 -15 0 -12 -13 -15 -60 -15 l-60 0 0
150 0 150 60 0 c54 0 60 -2 60 -21z m144 -107 c15 -70 29 -138 33 -151 5 -19
2 -22 -13 -19 -12 2 -21 14 -24 33 -4 24 -11 31 -34 33 -31 4 -46 -10 -46 -45
0 -17 -6 -23 -21 -23 -13 0 -19 5 -16 13 3 7 17 69 32 138 32 151 31 149 48
149 10 0 22 -39 41 -128z m198 98 c15 -18 18 -41 18 -122 0 -92 -2 -101 -25
-123 -18 -19 -35 -25 -70 -25 l-45 0 0 151 0 152 52 -5 c38 -4 57 -12 70 -28z
m188 10 c0 -18 -5 -19 -45 -13 l-45 6 0 -58 0 -57 40 7 c36 6 40 5 40 -14 0
-19 -4 -21 -40 -15 l-40 7 0 -57 0 -56 45 0 c33 0 45 -4 45 -15 0 -12 -13 -15
-60 -15 l-60 0 0 150 0 150 60 0 c53 0 60 -2 60 -20z m162 -10 c24 -29 23 -81
-2 -113 l-20 -25 24 -66 c22 -61 22 -66 6 -66 -14 0 -24 17 -40 65 -17 52 -26
65 -42 65 -19 0 -20 -5 -16 -65 3 -57 2 -65 -14 -65 -17 0 -18 12 -18 151 l0
152 52 -5 c38 -4 57 -12 70 -28z m178 10 c24 -24 27 -70 5 -70 -8 0 -15 6 -15
13 0 27 -26 50 -49 42 -18 -6 -22 -13 -19 -43 2 -30 9 -40 33 -51 54 -25 65
-41 65 -91 0 -33 -5 -52 -19 -64 -42 -38 -121 -11 -121 41 0 17 6 23 22 23 12
0 18 -3 15 -6 -13 -13 14 -44 38 -44 18 0 26 7 31 25 11 44 -3 72 -41 85 -64
21 -84 83 -44 134 25 32 70 35 99 6z m-838 -55 c-9 -46 -21 -52 -51 -28 l-23
19 39 25 c21 14 39 25 41 24 1 -1 -1 -19 -6 -40z m725 -102 c4 -11 -26 -27
-35 -19 -2 3 -2 12 2 21 6 18 27 16 33 -2z m-757 -32 c0 -14 -6 -19 -20 -18
-33 2 -22 33 13 36 4 1 7 -8 7 -18z m530 -2 c0 -14 -5 -19 -17 -17 -23 4 -28
25 -6 31 10 3 19 5 21 6 1 0 2 -8 2 -20z m-420 -141 c-32 -14 -46 -15 -65 -6
-19 9 -29 8 -48 -5 -23 -15 -26 -15 -42 3 -10 11 -14 21 -9 21 5 1 20 3 34 6
14 2 36 4 48 3 13 0 35 9 50 20 l25 20 24 -22 24 -23 -41 -17z m-225 20 c14
-6 25 -15 25 -19 0 -15 -30 -18 -54 -5 -19 10 -22 16 -14 24 14 14 12 14 43 0z
m-80 -28 c-14 -15 -22 -17 -37 -9 -26 14 -13 29 24 29 30 0 31 -1 13 -20z
m-55 -85 l0 -65 35 0 35 0 0 65 c0 51 3 65 15 65 13 0 15 -23 15 -150 0 -127
-2 -150 -15 -150 -12 0 -15 14 -15 70 l0 70 -35 0 -35 0 0 -71 c0 -58 -3 -70
-15 -67 -13 2 -16 27 -18 151 -2 134 0 147 16 147 14 0 17 -10 17 -65z m190
-59 c0 -101 3 -126 16 -137 11 -9 20 -10 32 -2 14 8 17 31 20 137 2 103 5 126
17 126 12 0 15 -22 15 -128 0 -146 -9 -172 -62 -172 -61 0 -68 17 -68 167 0
112 2 133 15 133 13 0 15 -20 15 -124z m270 104 c24 -24 27 -91 5 -110 -13
-11 -13 -14 0 -27 16 -15 20 -89 7 -109 -13 -19 -50 -34 -86 -34 l-36 0 0 150
0 150 45 0 c32 0 51 -6 65 -20z"/>
<path d="M2110 1100 c-9 -27 -25 -121 -22 -125 8 -8 52 -6 51 3 -1 17 -27 127
-29 122z"/>
<path d="M2270 1030 c0 -109 2 -120 18 -120 35 0 42 21 42 122 0 97 -1 99 -26
108 -14 6 -27 10 -30 10 -2 0 -4 -54 -4 -120z"/>
<path d="M2610 1095 c0 -50 2 -55 23 -55 36 0 51 16 51 55 0 39 -15 55 -51 55
-21 0 -23 -5 -23 -55z"/>
<path d="M2140 720 c0 -43 3 -50 19 -50 41 0 68 59 39 88 -7 7 -22 12 -35 12
-21 0 -23 -4 -23 -50z"/>
<path d="M2140 585 c0 -48 3 -55 19 -55 28 0 51 27 51 59 0 33 -16 51 -47 51
-21 0 -23 -4 -23 -55z"/>
<path d="M517 1520 c-81 -10 -154 -23 -161 -30 -20 -15 -39 -65 -171 -430 -64
-179 -125 -347 -136 -374 -10 -27 -19 -66 -19 -86 l0 -38 113 -56 c119 -59
476 -211 541 -231 47 -14 130 -3 394 51 l22 4 0 324 0 324 38 6 c20 3 78 10
127 16 123 14 215 31 215 40 0 8 -124 92 -295 200 -55 34 -158 102 -230 150
-166 111 -212 137 -255 143 -19 2 -102 -3 -183 -13z m178 -53 c-7 -17 -77
-210 -155 -427 -78 -217 -145 -398 -148 -402 -7 -7 -332 -51 -337 -46 -1 2 70
199 157 439 l160 436 122 13 c66 7 139 16 161 20 52 9 56 6 40 -33z m218 -82
c69 -44 126 -83 127 -86 0 -3 -70 -11 -156 -18 -86 -6 -159 -12 -163 -13 -10
-2 -62 25 -59 31 2 4 19 50 38 103 l35 97 26 -17 c14 -9 82 -53 152 -97z m162
-571 c0 -400 -2 -454 -15 -450 -8 2 -88 35 -177 72 l-163 68 0 367 0 367 113
11 c61 6 126 13 142 15 17 1 46 4 65 4 l35 2 0 -456z m-385 75 c0 -197 -2
-359 -6 -359 -3 0 -59 21 -125 46 -89 35 -119 51 -119 65 0 14 179 524 210
596 6 15 15 21 25 17 13 -5 15 -52 15 -365z m515 307 c50 -33 121 -79 159
-103 40 -24 63 -44 55 -47 -8 -2 -66 -9 -129 -15 -63 -7 -132 -14 -152 -18
l-38 -6 0 128 c0 69 3 125 8 123 4 -2 48 -30 97 -62z m-491 -721 c170 -68 310
-126 312 -128 2 -2 -69 -14 -157 -26 l-161 -22 -314 133 -314 133 128 16 c70
9 143 17 162 18 25 1 132 -38 344 -124z"/>
<path d="M2028 432 c-79 -3 -95 -19 -83 -81 8 -40 19 -51 53 -51 32 0 27 25
-7 40 -16 6 -32 19 -36 27 -12 32 53 71 70 43 5 -8 11 -8 20 0 7 6 41 10 75 9
58 -2 63 -4 81 -33 10 -17 19 -26 19 -20 0 6 11 23 25 38 26 28 21 32 -19 17
-13 -6 -26 -6 -28 -2 -4 11 -87 18 -170 13z"/>
<path d="M1712 417 c-15 -18 -7 -137 10 -149 7 -5 31 -7 54 -4 22 3 46 0 51
-5 22 -22 25 30 4 76 -14 31 -16 45 -8 45 7 0 19 -15 26 -32 l13 -33 14 33
c12 28 34 44 34 26 0 -14 -55 -129 -65 -136 -7 -5 -6 -8 1 -8 14 0 36 27 53
65 8 17 18 40 24 52 6 13 7 26 4 30 -4 3 -35 8 -69 10 -43 2 -71 9 -90 23 -32
23 -42 25 -56 7z m38 -22 c0 -18 4 -23 15 -19 21 8 45 -14 45 -41 0 -44 -10
-55 -51 -55 l-39 0 0 70 c0 56 3 70 15 70 9 0 15 -9 15 -25z"/>
<path d="M1747 354 c-11 -12 -8 -41 6 -52 18 -16 39 1 35 29 -3 23 -27 37 -41
23z"/>
<path d="M2312 417 c-11 -12 -4 -143 6 -132 3 3 7 32 7 65 1 33 5 63 8 66 3 3
23 -17 44 -46 l38 -51 3 50 c5 77 22 61 22 -19 0 -38 -4 -70 -10 -70 -5 0 -24
20 -42 45 -18 24 -35 44 -38 45 -3 0 -5 -23 -5 -50 0 -42 2 -48 12 -33 12 15
14 15 34 -3 19 -17 38 -19 165 -20 152 -1 176 6 156 42 -7 12 -6 26 1 41 9 20
7 28 -15 49 -25 25 -26 26 -52 9 -22 -15 -39 -17 -104 -11 -48 5 -83 13 -94
23 -17 15 -20 15 -37 -1 -18 -17 -22 -17 -43 -2 -27 19 -42 20 -56 3z m368
-22 c0 -8 7 -15 15 -15 8 0 15 -4 15 -10 0 -5 -7 -10 -15 -10 -10 0 -15 -10
-15 -30 0 -20 5 -30 15 -30 18 0 20 -17 3 -23 -26 -8 -38 6 -38 43 0 43 -20
58 -39 28 -10 -16 -9 -24 4 -44 18 -28 0 -34 -21 -6 -13 16 -15 16 -25 0 -5
-10 -15 -18 -21 -18 -6 0 -3 11 7 26 16 24 16 27 -1 45 -9 10 -14 22 -10 26 4
4 16 -3 25 -16 l19 -24 7 22 c5 17 12 21 27 18 14 -4 22 0 25 14 6 22 23 26
23 4z m-153 -23 c6 -4 13 -16 15 -27 2 -17 -2 -20 -29 -19 -22 1 -33 -3 -33
-12 0 -9 11 -14 30 -14 17 0 30 -4 30 -10 0 -14 -54 -12 -68 2 -7 7 -12 24
-12 38 0 41 34 63 67 42z"/>
<path d="M2251 379 l-22 -30 27 -36 c31 -41 43 -32 20 13 -14 25 -14 31 -1 51
30 44 9 47 -24 2z"/>
<path d="M1984 391 c-10 -10 -2 -22 26 -36 31 -16 39 -42 18 -63 -16 -16 -60
-15 -77 1 -11 10 -13 9 -9 -3 8 -27 56 -36 89 -17 28 15 32 15 54 1 22 -14 25
-14 36 4 7 11 18 18 25 15 6 -2 22 9 33 26 21 29 21 32 7 53 -10 14 -28 23
-46 24 l-30 2 0 -59 c0 -33 -4 -59 -10 -59 -6 0 -10 26 -10 58 l0 58 -51 -1
c-28 0 -52 -2 -55 -4z m176 -45 c0 -7 -7 -19 -15 -26 -12 -10 -15 -9 -15 7 0
11 3 23 7 26 11 12 23 8 23 -7z"/>
<path d="M2191 299 l-24 -32 27 7 c14 3 35 2 46 -4 26 -14 25 -2 -3 33 l-23
27 -23 -31z"/>
</g>
</svg>
