<?xml version="1.0" standalone="no"?>
<!DOCTYPE svg PUBLIC "-//W3C//DTD SVG 20010904//EN"
 "http://www.w3.org/TR/2001/REC-SVG-20010904/DTD/svg10.dtd">
<svg version="1.0" xmlns="http://www.w3.org/2000/svg"
 width="300.000000pt" height="300.000000pt" viewBox="0 0 300.000000 300.000000"
 preserveAspectRatio="xMidYMid meet">
<metadata>
Created by potrace 1.10, written by Peter Selinger 2001-2011
</metadata>
<g transform="translate(0.000000,300.000000) scale(0.100000,-0.100000)"
fill="#000000" stroke="none">
<path d="M1173 2985 c-10 -7 -14 -17 -10 -21 4 -5 11 -3 15 3 9 15 52 6 52
-11 0 -6 7 -3 14 7 12 15 15 15 26 2 18 -21 25 -19 26 10 2 23 -1 24 -52 24
-29 -1 -61 -7 -71 -14z"/>
<path d="M335 2979 c-8 -12 -6 -15 22 -23 25 -8 42 12 22 25 -19 12 -36 11
-44 -2z"/>
<path d="M2404 2963 c-3 -16 -10 -41 -15 -57 -12 -37 -12 -36 6 -36 8 0 20 10
26 23 11 20 11 21 -4 8 -18 -14 -22 -5 -11 23 3 9 12 16 20 16 8 0 14 5 14 10
0 6 -4 10 -10 10 -5 0 -7 7 -4 15 4 8 1 15 -5 15 -6 0 -13 -12 -17 -27z"/>
<path d="M10 2961 c0 -11 6 -21 13 -21 24 0 192 -21 212 -26 18 -5 19 -4 2 6
-12 8 -16 18 -12 31 6 17 1 19 -43 19 -27 0 -77 3 -111 6 -58 7 -61 6 -61 -15z
m175 -11 c20 -9 20 -9 0 -9 -11 0 -38 4 -60 8 l-40 9 40 0 c22 0 49 -3 60 -8z"/>
<path d="M900 2969 c0 -5 5 -9 10 -9 6 0 10 -18 10 -40 0 -43 -11 -50 -45 -26
-18 11 -23 10 -44 -9 l-23 -23 41 0 c62 -1 83 -10 76 -33 -4 -11 -2 -19 6 -19
7 0 10 10 6 28 -3 15 -2 45 2 67 5 31 11 40 27 41 12 1 26 4 33 8 6 4 31 4 56
0 42 -6 45 -8 45 -37 0 -17 8 -39 18 -50 9 -11 11 -17 5 -13 -7 4 -13 4 -14
-1 0 -4 -2 -16 -4 -27 -4 -22 4 -46 16 -46 5 0 7 11 3 25 -6 23 -3 25 26 25
24 0 31 4 26 15 -3 10 1 15 12 15 15 1 15 2 -2 15 -17 13 -21 13 -31 -2 -16
-21 -28 -3 -32 49 -3 30 0 38 12 38 9 0 14 4 11 8 -7 12 -246 13 -246 1z"/>
<path d="M2794 2968 c-5 -7 -2 -9 8 -6 11 5 15 0 13 -15 -4 -36 -4 -37 -20
-37 -16 0 -20 -15 -7 -24 20 -12 56 46 47 75 -7 21 -30 25 -41 7z"/>
<path d="M482 2950 c-12 -11 -22 -25 -22 -30 0 -6 -4 -10 -10 -10 -5 0 -10 7
-10 15 0 9 -9 15 -21 15 -17 0 -19 -3 -10 -13 6 -8 8 -17 4 -20 -3 -4 5 -7 18
-7 13 -1 78 -7 144 -14 66 -8 123 -12 128 -9 4 2 7 11 7 19 0 11 -9 13 -40 9
-35 -4 -42 -2 -50 18 -5 12 -9 18 -10 12 0 -5 -5 -3 -10 5 -8 13 -10 13 -10
-1 0 -9 -12 -21 -27 -28 -22 -10 -29 -10 -38 2 -5 7 -17 12 -25 9 -13 -5 -13
-3 -2 11 22 26 9 40 -16 17z"/>
<path d="M2954 2953 c0 -10 -9 -22 -21 -28 -13 -5 -23 -13 -23 -17 0 -12 14
-9 38 8 21 15 31 54 13 54 -5 0 -8 -8 -7 -17z"/>
<path d="M816 2918 c-3 -13 -6 -27 -6 -33 1 -15 30 27 30 42 0 22 -17 15 -24
-9z"/>
<path d="M2617 2933 c-4 -3 -2 -12 4 -19 7 -8 7 -14 -1 -19 -15 -9 -12 -42 4
-48 16 -6 29 50 14 59 -5 3 -4 12 3 20 9 11 8 14 -3 14 -8 0 -18 -3 -21 -7z"/>
<path d="M725 2908 c8 -26 34 -50 46 -42 5 3 9 16 9 30 0 21 -4 24 -20 19 -11
-4 -20 -2 -20 4 0 6 -5 11 -11 11 -6 0 -8 -9 -4 -22z"/>
<path d="M2172 2875 c1 -9 7 -15 11 -15 5 1 22 -11 38 -26 19 -19 29 -23 29
-13 0 15 -20 34 -59 57 -20 12 -22 11 -19 -3z"/>
<path d="M238 2873 c6 -2 10 -9 6 -14 -3 -5 0 -9 5 -9 6 0 11 5 11 10 0 6 5
10 10 10 6 0 10 -7 10 -16 0 -14 2 -14 16 -3 14 12 14 14 -3 20 -10 4 -29 8
-43 8 -14 -1 -19 -3 -12 -6z"/>
<path d="M1270 2869 c0 -10 30 -20 41 -13 18 11 9 24 -16 22 -14 -1 -25 -5
-25 -9z"/>
<path d="M2540 2870 c0 -5 -7 -7 -15 -4 -27 11 -16 -15 15 -33 24 -14 30 -23
25 -40 -3 -12 -1 -24 4 -27 12 -8 21 44 11 68 -5 12 -9 15 -9 7 -1 -11 -4 -11
-15 -1 -8 6 -12 18 -9 26 3 8 2 14 -1 14 -3 0 -6 -4 -6 -10z"/>
<path d="M2745 2862 c-3 -3 -5 -16 -5 -29 0 -17 5 -23 23 -22 12 0 16 3 10 6
-18 7 -16 33 2 33 8 0 15 -7 15 -15 0 -8 5 -15 10 -15 14 0 12 27 -2 36 -15
10 -46 13 -53 6z"/>
<path d="M2382 2822 c0 -36 0 -36 14 -12 17 32 17 37 0 43 -10 4 -14 -4 -14
-31z"/>
<path d="M2675 2819 c-9 -26 5 -41 25 -29 13 9 13 11 0 20 -13 9 -13 11 0 20
13 8 13 10 -2 10 -9 0 -20 -9 -23 -21z"/>
<path d="M717 2823 c-16 -15 -5 -24 27 -22 19 2 38 0 42 -4 11 -11 66 -8 59 3
-4 6 -11 8 -16 4 -5 -3 -23 2 -41 10 -33 17 -60 20 -71 9z"/>
<path d="M1446 2789 c-3 -18 -4 -34 -1 -37 3 -3 5 0 5 6 0 7 11 12 25 12 21 0
23 3 16 23 -13 35 -37 33 -45 -4z"/>
<path d="M1180 2784 c8 -4 24 -14 34 -23 11 -9 16 -10 12 -3 -5 9 4 12 33 12
22 0 41 -5 44 -12 4 -10 7 -10 18 -1 7 7 11 15 8 17 -2 2 -40 7 -84 10 -44 3
-73 3 -65 0z"/>
<path d="M1755 2780 c-3 -5 -13 -6 -21 -3 -12 4 -15 1 -12 -13 1 -10 14 -21
28 -25 33 -9 18 -12 -62 -9 -44 1 -68 -2 -68 -9 0 -6 4 -11 9 -11 5 0 11 -11
14 -26 4 -24 3 -25 -37 -22 -42 3 -47 11 -31 51 5 13 3 17 -11 15 -42 -3 -63
3 -67 20 -4 14 -5 15 -6 1 -1 -20 -51 -32 -68 -17 -9 7 -13 7 -13 0 0 -5 -6
-10 -12 -9 -29 1 -48 -4 -48 -11 0 -5 19 -8 43 -6 23 1 65 0 93 -3 43 -4 54
-10 63 -30 19 -41 14 -46 -31 -38 -24 3 -68 8 -98 11 -97 7 -225 18 -232 20
-5 1 -19 2 -33 3 -15 1 -25 7 -25 16 0 8 -4 15 -10 15 -5 0 -10 -5 -10 -10 0
-6 -36 -9 -94 -8 -85 3 -95 5 -100 23 -4 15 -8 17 -17 8 -7 -7 -24 -9 -39 -6
-15 3 -31 0 -34 -6 -4 -7 1 -11 13 -11 11 0 22 -4 25 -9 3 -5 59 -12 123 -16
65 -4 129 -9 143 -11 31 -7 61 -10 291 -30 216 -20 236 -18 237 27 0 17 2 32
4 34 10 9 107 32 113 27 7 -7 12 -8 39 -11 15 -1 27 -75 15 -89 -4 -4 0 -32 8
-63 l14 -56 -31 -33 c-16 -17 -30 -36 -30 -41 0 -5 -7 -9 -15 -9 -19 0 -37 46
-30 74 5 15 4 17 -3 7 -8 -11 -12 -10 -21 5 -9 17 -10 17 -11 2 0 -10 -4 -18
-10 -18 -5 0 -10 -5 -10 -12 0 -9 3 -9 12 0 20 20 25 14 32 -33 7 -44 8 -45
44 -45 20 0 47 -3 60 -6 16 -5 22 -2 22 10 0 9 -6 16 -14 16 -7 0 -19 6 -25
14 -10 12 -7 18 17 30 16 8 32 12 36 9 9 -9 7 8 -5 47 -13 42 -12 194 1 198
27 10 4 22 -40 22 -48 0 -50 1 -44 24 6 24 -19 45 -31 26z"/>
<path d="M2313 2755 c-1 -20 3 -33 8 -30 5 4 9 16 10 28 0 12 3 16 6 10 2 -7
9 -13 14 -13 6 0 5 8 -1 20 -17 31 -35 24 -37 -15z"/>
<path d="M2753 2782 c-7 -4 -11 -18 -10 -30 1 -24 17 -31 17 -7 0 8 5 15 10
15 6 0 10 7 10 15 0 17 -9 19 -27 7z"/>
<path d="M2875 2767 c-32 -39 -36 -47 -27 -47 5 0 20 11 33 24 13 13 28 22 35
19 7 -2 15 0 19 6 9 15 -48 13 -60 -2z"/>
<path d="M1558 2763 c18 -2 45 -2 60 0 15 2 0 4 -33 4 -33 0 -45 -2 -27 -4z"/>
<path d="M2410 2764 c0 -11 41 -74 48 -74 18 2 75 39 60 40 -9 0 -20 -4 -23
-10 -12 -19 -36 -10 -53 20 -15 27 -32 39 -32 24z"/>
<path d="M1950 2740 c0 -24 6 -25 25 -6 15 15 10 26 -12 26 -7 0 -13 -9 -13
-20z"/>
<path d="M2660 2742 c0 -7 4 -11 9 -7 19 11 23 -17 5 -31 -14 -10 -15 -14 -4
-12 21 4 43 36 36 53 -6 18 -46 15 -46 -3z"/>
<path d="M2610 2727 c0 -15 6 -23 19 -24 14 -1 18 3 14 13 -3 8 -9 14 -15 14
-5 0 -6 5 -3 10 3 6 1 10 -4 10 -6 0 -11 -10 -11 -23z"/>
<path d="M2337 2707 c-7 -20 18 -43 28 -27 4 7 1 19 -7 27 -14 13 -16 13 -21
0z"/>
<path d="M2730 2705 c-13 -16 -8 -18 27 -9 13 4 20 10 17 15 -8 14 -30 11 -44
-6z"/>
<path d="M2009 2688 c-7 -31 6 -58 28 -58 15 0 15 2 0 18 -8 9 -17 28 -19 42
l-4 25 -5 -27z"/>
<path d="M2802 2674 c-13 -9 -29 -13 -37 -10 -9 3 -12 0 -8 -10 3 -7 6 -14 8
-14 11 0 65 34 65 41 0 12 -2 12 -28 -7z"/>
<path d="M772 2655 c-7 -14 -12 -33 -12 -41 0 -22 -48 -37 -81 -25 -15 5 -29
7 -32 5 -3 -3 -38 -1 -78 5 -40 5 -78 7 -83 3 -23 -14 -176 -18 -336 -8 -77 4
-79 4 -25 -4 215 -31 223 -32 297 -21 51 8 101 9 163 2 50 -5 110 -11 134 -13
l44 -2 17 62 c17 63 13 83 -8 37z"/>
<path d="M2318 2674 c-3 -5 -2 -20 1 -33 5 -20 8 -21 19 -9 9 12 9 18 -2 33
-7 10 -15 14 -18 9z"/>
<path d="M1934 2614 c-15 -22 -33 -154 -22 -154 3 0 20 5 39 12 33 12 33 12 9
18 -33 8 -33 37 0 115 7 17 9 17 9 3 1 -16 3 -16 21 2 26 26 26 27 -10 28 -22
0 -35 -6 -46 -24z"/>
<path d="M2613 2633 c-27 -5 -31 -23 -5 -23 28 0 62 12 62 21 0 9 -17 10 -57
2z"/>
<path d="M904 2588 c12 -39 17 -44 52 -50 21 -4 58 -7 81 -7 23 -1 44 -4 46
-8 3 -5 2 -82 -3 -172 -5 -123 -11 -167 -21 -175 -8 -6 -40 -52 -72 -102 -35
-56 -66 -94 -78 -97 -17 -5 -20 -11 -16 -29 5 -18 0 -26 -19 -35 -22 -10 -26
-9 -33 10 -5 13 -5 27 2 35 5 7 7 15 3 19 -3 4 -13 -2 -21 -13 -13 -17 -14
-17 -15 -1 0 9 -4 17 -10 17 -5 0 -10 7 -10 16 0 14 8 16 50 10 47 -6 50 -5
51 16 0 13 2 58 4 101 l4 77 -39 0 c-31 0 -40 4 -40 17 0 16 -1 16 -17 -1 -13
-13 -15 -20 -5 -23 7 -3 12 -24 12 -54 0 -27 4 -49 8 -49 5 0 7 20 6 45 -3 47
5 60 34 51 12 -4 18 -18 20 -46 2 -34 0 -40 -17 -40 -14 0 -19 -6 -18 -20 1
-12 8 -20 19 -20 24 0 23 -17 -1 -30 -13 -7 -22 -7 -26 0 -3 6 -17 7 -29 4
-18 -4 -25 -1 -29 17 -3 13 -2 29 4 35 7 9 5 16 -10 23 -17 10 -20 8 -23 -17
-3 -26 -3 -26 -15 -6 -9 15 -9 31 -3 53 5 19 5 29 -1 26 -5 -4 -9 -15 -9 -26
0 -10 -4 -19 -9 -19 -11 0 -21 25 -21 56 0 17 -4 22 -16 17 -13 -5 -15 -2 -9
15 4 14 2 22 -6 22 -6 0 -18 8 -25 18 -11 15 -13 15 -19 1 -4 -10 37 -84 114
-208 67 -106 121 -197 121 -202 0 -26 25 5 98 121 43 69 100 160 127 202 l50
78 228 0 c228 0 228 0 225 22 -2 17 -11 22 -48 25 -25 2 -53 5 -64 7 -12 3
-20 -2 -23 -15 -8 -29 -37 -19 -41 14 -2 18 -9 27 -21 27 -14 0 -17 -6 -13
-26 4 -24 3 -26 -19 -18 -30 10 -111 10 -127 0 -7 -4 -12 -2 -12 6 0 10 -2 10
-9 -1 -6 -10 -10 -10 -16 -1 -6 9 -10 9 -16 -1 -8 -12 -11 -11 -19 1 -6 10
-10 11 -10 3 0 -21 -17 -15 -25 10 -11 31 -15 177 -5 152 15 -36 10 -3 -7 52
-11 36 -21 52 -30 49 -7 -3 -13 -1 -13 5 0 6 -7 9 -15 5 -8 -3 -19 3 -25 14
-14 27 -12 34 5 20 10 -9 15 -9 15 -1 0 6 5 11 10 11 6 0 10 -7 10 -15 0 -8 5
-15 11 -15 6 0 9 7 5 15 -10 28 33 16 48 -12 12 -22 15 -24 16 -9 0 15 3 16
15 6 12 -10 15 -10 15 0 0 10 3 10 15 0 12 -10 15 -10 15 0 0 8 4 9 13 3 6 -6
20 -13 31 -17 14 -5 17 -2 12 9 -8 21 11 19 23 -2 6 -10 11 -12 11 -5 0 7 14
12 36 12 19 0 33 -4 30 -9 -3 -5 1 -11 9 -15 9 -3 15 0 15 8 0 9 8 12 25 8 14
-2 25 -9 25 -16 0 -6 5 -4 10 4 7 11 10 12 10 1 0 -9 12 -12 45 -9 25 2 45 1
45 -2 0 -3 12 -6 28 -6 50 -3 56 -8 84 -72 32 -73 32 -73 16 -70 -7 2 -12 -4
-13 -12 -1 -8 -7 -14 -14 -12 -7 1 -29 3 -47 4 -20 1 -39 8 -44 17 -6 10 -10
11 -10 4 0 -19 -18 -16 -23 5 -4 15 -5 14 -6 -2 -1 -20 -1 -20 -17 0 -13 16
-15 16 -10 2 3 -10 3 -18 -1 -18 -3 0 -12 8 -19 18 -12 15 -13 15 -14 0 0 -11
-6 -15 -20 -11 -11 3 -20 9 -20 14 0 5 -4 9 -10 9 -5 0 -6 -8 -3 -17 5 -12 2
-15 -10 -10 -9 3 -17 2 -17 -4 0 -7 -15 -9 -40 -5 -35 5 -39 3 -27 -8 11 -11
25 -12 63 -5 34 7 92 5 193 -6 79 -9 146 -14 149 -11 2 3 -5 29 -17 57 -11 28
-21 60 -21 70 0 10 -4 20 -9 24 -5 3 -12 18 -16 34 -6 27 -8 28 -83 34 -114 9
-312 27 -352 33 -19 2 -87 9 -150 14 -63 5 -127 12 -142 16 l-26 5 12 -43z
m82 9 c8 3 14 1 14 -5 0 -6 3 -19 7 -29 5 -14 4 -16 -8 -7 -8 6 -26 9 -41 8
-15 -2 -29 3 -31 11 -4 9 1 11 15 7 18 -4 20 -2 14 14 -5 15 -4 16 5 7 6 -6
18 -9 25 -6z"/>
<path d="M2030 2606 c0 -7 7 -16 15 -20 8 -3 12 -12 9 -21 -3 -8 -1 -15 5 -15
19 0 12 49 -9 60 -16 8 -20 8 -20 -4z"/>
<path d="M2091 2580 c6 -16 16 -28 22 -27 6 1 13 -6 15 -17 2 -11 0 -16 -7
-12 -16 10 -13 -3 4 -20 8 -9 15 -33 15 -54 0 -21 5 -42 11 -45 6 -4 8 -14 5
-22 -4 -9 -2 -21 2 -27 5 -6 12 -30 15 -53 6 -46 -11 -59 -33 -25 -11 16 -11
16 -6 0 3 -10 2 -18 -3 -18 -16 0 -29 25 -36 66 -6 41 -7 42 -35 31 -16 -6
-27 -13 -25 -16 3 -2 -3 -10 -13 -17 -9 -7 -12 -14 -6 -14 6 0 19 9 29 20 24
26 39 15 19 -15 -9 -13 -13 -29 -9 -35 3 -5 -1 -10 -9 -10 -9 0 -16 4 -16 9 0
11 -42 11 -50 0 -9 -12 -50 -21 -50 -11 0 6 -10 8 -22 4 -18 -4 -20 -2 -14 14
13 30 12 46 -1 51 -9 3 -13 -5 -13 -24 0 -15 -8 -37 -16 -48 -15 -19 -16 -19
-12 13 5 32 4 32 -39 32 -36 0 -43 -3 -43 -19 0 -11 -3 -26 -6 -34 -5 -13 39
-16 338 -19 l343 -4 92 -32 c161 -55 250 -130 310 -259 31 -68 36 -89 41 -179
9 -181 -31 -299 -137 -405 -62 -62 -137 -104 -246 -139 -59 -19 -99 -23 -257
-28 l-188 -4 0 -212 0 -211 -205 0 -205 0 0 738 0 737 50 0 c37 0 50 4 50 14
0 20 -6 22 -77 30 l-63 7 0 -99 c0 -63 4 -102 12 -110 9 -9 8 -12 -7 -13 -43
-2 -90 3 -99 11 -9 9 24 22 45 18 10 -2 15 14 19 60 3 34 2 62 -1 62 -3 0 -70
-96 -149 -212 -79 -117 -185 -274 -236 -349 l-93 -137 247 -367 c136 -202 253
-376 260 -386 13 -17 12 -18 -20 -8 -18 5 -127 9 -243 8 l-210 -1 -35 56 c-19
31 -72 114 -116 184 -45 70 -92 145 -105 166 -20 35 -24 37 -33 22 -6 -10 -70
-110 -142 -222 l-131 -204 -232 -3 c-127 -1 -231 -1 -231 1 0 2 26 40 58 85
32 45 136 199 231 342 96 143 184 273 197 289 l22 29 -228 342 c-125 187 -235
348 -244 357 -9 9 -16 19 -16 22 0 3 105 6 234 6 l234 0 0 75 c1 74 -4 85 -25
64 -5 -5 -89 -20 -186 -32 -96 -12 -179 -26 -184 -31 -4 -5 23 -5 62 -1 39 4
84 9 100 10 17 1 44 5 60 8 17 4 56 9 88 12 l58 5 -3 -38 c-2 -30 -7 -38 -25
-40 -13 -2 -23 1 -23 7 0 6 -5 11 -11 11 -5 0 -7 -4 -4 -10 4 -6 -6 -10 -22
-10 -23 0 -25 2 -13 11 12 8 9 9 -10 4 -14 -4 -92 -9 -175 -12 -82 -3 -153 -9
-156 -14 -3 -6 -12 -9 -19 -7 -7 2 -15 -3 -17 -9 -3 -7 0 -13 6 -13 6 0 11 -7
11 -15 0 -8 5 -15 10 -15 6 0 10 -5 10 -11 0 -7 -9 -9 -21 -6 -15 4 -19 1 -17
-11 2 -9 10 -17 18 -17 28 -1 60 -16 60 -29 0 -7 9 -21 20 -31 11 -10 20 -23
19 -29 -3 -25 2 -34 21 -39 15 -4 20 -14 20 -36 0 -24 4 -31 19 -31 11 0 23
-4 26 -10 3 -5 1 -10 -4 -10 -6 0 -11 -4 -11 -10 0 -5 5 -10 11 -10 10 0 53
-47 54 -60 1 -3 11 -21 23 -40 12 -19 22 -45 22 -57 0 -27 20 -32 20 -5 1 13
4 11 14 -8 9 -15 13 -46 11 -77 -2 -41 0 -49 9 -41 7 7 10 22 8 35 -2 13 0 23
6 23 5 0 13 -16 16 -35 5 -24 11 -33 21 -28 9 3 15 -1 15 -10 0 -9 6 -20 13
-24 22 -13 45 -69 40 -97 -6 -32 -16 -33 -37 -3 -15 19 -16 20 -10 2 17 -49
17 -65 -1 -65 -11 0 -15 -5 -12 -14 3 -8 -1 -17 -9 -20 -8 -3 -14 1 -14 9 0 8
-4 15 -8 15 -5 0 -7 -18 -5 -40 3 -25 0 -40 -7 -40 -6 0 -10 10 -8 22 2 11 -3
23 -10 26 -10 3 -13 -6 -12 -34 3 -63 1 -84 -10 -84 -5 0 -9 16 -8 35 1 19 -2
38 -5 42 -4 3 -7 -11 -7 -32 0 -48 -20 -105 -37 -105 -6 0 -17 8 -22 18 -9 14
-10 13 -9 -10 1 -15 6 -24 10 -22 4 3 8 -2 8 -10 0 -9 -7 -16 -15 -16 -8 0
-15 -9 -15 -20 0 -11 -4 -20 -8 -20 -5 0 -14 -11 -20 -25 -6 -14 -17 -24 -23
-23 -7 2 -13 -11 -13 -31 -1 -39 -25 -56 -27 -19 -1 20 -2 20 -6 3 -22 -95
-23 -97 -51 -91 -25 6 -26 5 -8 -8 19 -16 14 -36 -10 -36 -8 0 -14 -9 -14 -20
0 -15 -7 -20 -25 -20 l-25 0 0 -151 c0 -138 1 -150 18 -147 14 3 17 16 20 83
2 44 7 84 12 89 7 7 10 6 10 -2 0 -9 4 -9 20 0 26 17 40 2 47 -51 4 -30 2 -41
-8 -41 -10 0 -10 -3 -1 -12 7 -7 12 -40 12 -79 0 -66 0 -67 30 -71 36 -5 59 6
38 18 -8 5 -19 25 -25 44 l-11 35 -1 -37 c-1 -21 -5 -38 -10 -38 -6 0 -10 46
-10 105 0 78 3 105 12 104 30 -4 47 2 47 16 0 8 9 15 20 15 19 0 21 -5 35 -72
2 -10 -1 -21 -6 -24 -14 -8 -10 -24 6 -24 11 0 15 12 15 46 0 27 4 43 10 39 5
-3 10 -36 11 -73 0 -47 3 -61 9 -47 6 14 8 4 8 -35 0 -45 -2 -50 -8 -25 l-8
30 -1 -27 c-2 -53 -21 -28 -21 27 0 30 -4 55 -10 55 -10 0 -15 -122 -5 -131 2
-3 20 -3 40 -1 l35 4 0 78 c0 57 -4 83 -15 94 -20 20 -19 40 1 32 13 -5 15 -1
12 24 -4 24 -1 30 14 30 10 0 24 -11 30 -25 8 -19 14 -22 20 -13 5 9 8 8 8 -5
0 -10 5 -15 11 -12 6 4 8 13 5 21 -6 15 9 20 18 6 5 -8 10 -153 7 -202 -2 -24
-2 -24 -14 -5 -13 23 -17 65 -5 65 4 0 8 7 8 15 0 8 -6 14 -12 13 -14 -3 -15
14 -4 48 5 16 2 23 -14 27 -11 3 -20 1 -20 -4 0 -5 6 -9 13 -9 6 -1 1 -7 -13
-15 -14 -8 -20 -14 -14 -15 7 0 14 -15 17 -32 3 -18 9 -46 13 -62 5 -19 2 -31
-7 -38 -11 -7 -11 -11 -1 -15 7 -3 12 -24 12 -54 0 -43 -2 -49 -21 -49 -17 0
-19 -3 -10 -14 6 -7 13 -37 16 -66 2 -28 9 -58 16 -66 8 -10 8 -14 0 -14 -17
0 -13 -86 5 -121 14 -28 14 -32 0 -48 -23 -25 -20 -32 9 -19 14 6 24 17 21 24
-3 7 2 20 9 31 17 21 22 303 6 303 -6 0 -8 -57 -6 -135 3 -113 2 -135 -10
-135 -8 0 -15 6 -16 13 0 6 -1 70 -2 140 -2 113 0 130 16 138 19 11 23 30 6
27 -21 -5 -20 21 0 32 20 10 21 20 21 140 0 122 1 130 19 130 11 0 32 16 47
38 58 78 75 92 117 92 25 0 44 -6 51 -16 10 -13 17 -13 41 -3 51 20 103 21
113 3 8 -14 15 -15 41 -6 38 13 77 0 86 -30 11 -34 56 -78 80 -78 13 0 26 -4
29 -9 3 -4 6 -103 6 -219 1 -186 3 -211 17 -214 14 -2 16 -15 14 -73 -1 -38
-7 -73 -13 -76 -11 -7 0 -149 12 -149 12 0 17 89 5 94 -6 3 -6 8 1 13 12 8 19
145 15 308 -1 50 -3 142 -4 205 l-2 115 25 -3 c14 -1 27 -7 28 -13 3 -6 8 -6
15 0 7 5 39 11 72 12 l60 3 0 -55 0 -54 47 -2 c27 -1 48 2 48 7 0 6 -11 10
-25 10 -16 0 -25 6 -25 16 0 11 6 14 20 9 11 -4 20 -2 20 4 0 6 -7 11 -16 11
-20 0 -47 27 -35 35 6 3 28 2 51 -1 37 -6 40 -9 36 -33 -2 -14 -5 -26 -6 -26
-6 0 -4 -98 2 -101 13 -8 19 20 21 99 2 81 3 85 33 90 10 1 24 6 31 10 6 4 14
3 18 -3 3 -5 19 -10 36 -10 l29 0 0 -92 c0 -51 4 -98 8 -103 4 -6 20 -12 36
-13 22 -2 27 1 22 14 -3 9 -6 47 -6 86 0 51 -3 68 -12 65 -7 -2 -11 -11 -9
-18 2 -8 4 -40 5 -72 1 -42 -3 -57 -13 -57 -8 0 -11 6 -7 16 4 9 2 22 -3 28
-6 6 -8 21 -6 31 2 11 4 37 4 58 1 30 5 37 21 37 11 0 20 5 20 10 0 6 5 10 10
10 6 0 10 -7 10 -15 0 -21 18 -19 22 2 3 16 5 16 25 -4 l21 -21 6 21 c4 16 8
19 17 10 6 -6 18 -9 25 -6 8 3 21 0 28 -6 11 -10 17 -8 25 6 8 13 13 15 19 6
4 -7 19 -10 34 -8 19 4 28 0 31 -12 4 -15 6 -15 12 5 6 18 10 20 21 11 12 -10
13 -9 8 5 -3 9 -2 22 4 29 5 6 10 71 10 142 0 240 1 245 17 245 9 0 15 -9 15
-21 0 -19 4 -20 58 -14 111 12 102 15 126 -45 13 -30 42 -94 64 -141 23 -47
42 -93 42 -102 0 -10 8 -17 20 -17 20 0 27 14 11 24 -5 3 -11 15 -14 26 -4 16
0 20 20 20 22 0 25 -4 21 -27 -3 -16 -8 -37 -13 -48 -5 -16 -3 -15 14 5 11 14
21 34 22 45 0 12 6 4 14 -20 13 -38 14 -36 10 50 -3 50 -7 110 -10 135 -3 25
-1 59 4 75 6 17 15 49 21 73 6 23 14 42 19 42 4 0 11 -71 14 -157 6 -168 -3
-233 -34 -269 -30 -33 -22 -35 13 -4 17 16 34 27 37 24 3 -3 1 -8 -4 -12 -6
-4 -7 -27 -4 -52 3 -25 7 -35 7 -22 1 13 7 20 12 17 6 -4 10 16 10 54 0 47 5
67 27 100 23 36 31 41 65 41 36 0 38 2 38 30 0 23 -4 30 -20 30 -11 0 -20 5
-20 10 0 6 9 10 20 10 15 0 20 7 20 24 0 27 33 56 62 56 13 0 18 8 18 31 0 24
4 30 15 25 11 -4 15 1 15 17 0 18 2 19 10 7 7 -11 10 -7 10 17 0 32 25 68 40
58 4 -3 10 5 14 18 9 34 7 39 -11 35 -10 -2 -18 -12 -18 -22 0 -11 -6 -21 -13
-24 -7 -2 -13 2 -11 9 5 40 0 44 -51 41 l-50 -4 1 -76 c1 -57 3 -69 9 -47 4
17 8 24 9 17 0 -7 6 -10 11 -7 6 4 7 12 1 23 -13 24 16 71 45 72 14 0 11 -43
-4 -48 -7 -2 -12 -12 -12 -23 0 -23 -40 -80 -50 -74 -4 3 -10 -9 -14 -25 -4
-20 -14 -34 -31 -40 -14 -5 -25 -14 -25 -20 0 -5 -7 -10 -16 -10 -8 0 -12 5
-9 10 3 6 -5 10 -19 10 -28 0 -41 14 -29 33 4 6 6 22 5 33 -2 12 5 30 15 40
17 17 17 17 1 11 -15 -5 -18 -1 -18 23 0 30 21 53 28 31 3 -8 9 -5 19 8 8 12
18 21 24 21 12 0 12 -47 -1 -55 -12 -7 -9 -57 3 -66 5 -4 -2 -9 -16 -13 -27
-6 -45 -36 -23 -36 8 0 17 6 19 13 4 9 8 9 15 -2 5 -7 15 -10 22 -6 8 5 10 35
7 101 -5 92 -5 93 25 129 19 21 40 35 54 35 25 0 41 16 22 22 -8 3 -1 21 20
52 18 26 32 51 32 56 0 4 6 11 13 13 9 4 9 8 -2 15 -22 15 -5 42 26 42 15 0
35 5 43 11 12 8 9 9 -12 5 -36 -8 -48 14 -36 67 11 48 4 201 -11 239 -5 14
-15 29 -21 33 -6 4 -9 17 -6 29 6 25 -2 40 -26 49 -10 3 -15 12 -12 20 3 8
-11 30 -30 51 -20 20 -36 41 -36 47 0 6 -7 8 -16 5 -10 -4 -18 0 -21 13 -3 11
-11 17 -18 15 -8 -4 -15 3 -17 18 -2 13 -9 23 -16 23 -8 0 -19 8 -26 18 -16
21 -26 22 -26 1 0 -27 -25 -9 -28 20 -3 25 -7 28 -35 24 -18 -3 -40 -8 -50
-13 -14 -6 -20 -2 -24 14 -6 22 -29 29 -35 10 -2 -5 -11 -7 -22 -3 -15 6 -17
14 -12 43 l5 36 -19 -25 c-11 -14 -18 -33 -16 -43 4 -18 4 -18 -14 -2 -13 12
-23 14 -35 7 -30 -16 -65 -2 -72 30 -5 27 -41 63 -52 52 -3 -3 -1 -8 5 -12 6
-4 14 -19 17 -34 6 -23 4 -27 -15 -25 -29 1 -40 17 -25 37 6 8 8 12 3 8 -12
-10 -29 11 -43 51 -14 38 -10 52 9 33 14 -14 48 -16 48 -3 0 14 -14 21 -44 23
-17 2 -26 8 -26 20 0 11 5 15 15 12 18 -7 20 7 3 24 -7 7 -9 12 -5 12 4 0 -1
9 -10 19 -53 57 -63 70 -63 80 0 6 -4 11 -9 11 -6 0 -6 -12 0 -30z m-480 -541
c4 -8 8 -127 8 -266 0 -139 3 -258 6 -263 3 -6 -1 -10 -11 -10 -12 0 -14 -3
-6 -13 7 -8 11 -115 11 -300 0 -158 3 -292 7 -298 3 -6 -3 -13 -15 -16 -12 -3
-21 -10 -21 -17 0 -6 -15 12 -32 39 -60 95 -123 190 -128 195 -12 11 -100 149
-107 166 -4 11 -16 27 -28 37 -11 10 -13 15 -5 11 8 -4 3 5 -12 21 -16 15 -28
31 -28 36 0 4 -11 19 -25 33 -23 23 -25 32 -25 125 0 84 3 103 19 118 10 10
34 42 53 70 19 29 38 50 42 45 4 -4 6 -2 4 3 -3 11 12 36 100 170 19 27 37 52
41 55 3 3 12 17 18 33 7 15 20 27 28 27 10 0 13 5 9 11 -5 9 6 10 41 7 26 -3
51 -12 56 -19z m-441 -539 c0 -16 -4 -30 -10 -30 -5 0 -10 6 -10 14 0 8 -3 21
-6 30 -4 11 -1 16 10 16 11 0 16 -9 16 -30z m1440 -410 l-20 -65 6 90 c3 50
11 99 18 110 21 37 18 -64 -4 -135z m-90 88 c0 -26 -13 -58 -22 -58 -6 0 -7 8
-4 18 5 15 5 15 -6 1 -7 -8 -21 -18 -30 -22 -15 -5 -16 -11 -8 -32 6 -15 10
-53 10 -86 0 -46 -3 -59 -15 -59 -8 0 -15 9 -15 20 0 11 -4 20 -10 20 -12 0
-12 -2 0 -35 6 -16 16 -25 26 -23 9 2 19 -3 21 -9 3 -8 -5 -13 -20 -13 -31 0
-36 7 -76 105 -30 72 -49 117 -59 137 -4 8 65 22 108 22 14 0 25 -5 25 -11 0
-6 3 -15 8 -19 4 -4 7 0 7 9 0 8 9 19 20 22 11 3 20 11 20 16 0 5 5 9 10 9 6
0 10 -6 10 -12z m-1652 -105 c-3 -34 -6 -38 -31 -38 -42 -1 -50 8 -33 40 10
20 17 24 20 14 2 -8 7 -21 9 -29 3 -8 6 0 6 18 1 22 6 32 17 32 12 0 14 -9 12
-37z m57 -24 c13 -24 14 -34 4 -45 -11 -13 -3 -19 23 -15 4 0 13 -9 19 -22 6
-12 23 -34 37 -49 25 -28 25 -28 4 -28 -13 0 -22 -6 -22 -15 0 -8 -7 -15 -15
-15 -8 0 -15 7 -15 15 0 12 -14 15 -65 15 -37 0 -65 -4 -65 -10 0 -5 -7 -10
-16 -10 -8 0 -12 5 -9 10 4 6 -15 10 -49 10 -63 0 -74 9 -45 36 12 11 30 36
41 57 l19 39 57 -4 57 -3 3 33 c4 40 17 41 37 1z m1731 -14 c-20 -15 -12 -20
22 -16 6 1 12 -5 12 -14 0 -9 -9 -15 -25 -15 -22 0 -25 -4 -25 -39 0 -24 -6
-44 -17 -52 -15 -13 -16 -10 -10 35 4 27 7 64 7 82 0 30 3 34 28 34 26 -1 26
-1 8 -15z"/>
<path d="M1500 1636 c0 -3 14 -11 30 -20 26 -13 30 -13 30 0 0 9 -4 12 -10 9
-5 -3 -10 -1 -10 4 0 6 -9 11 -20 11 -11 0 -20 -2 -20 -4z"/>
<path d="M2412 1116 c1 -20 6 -36 10 -36 11 0 6 60 -5 67 -4 2 -7 -11 -5 -31z"/>
<path d="M2466 2595 c-3 -9 -2 -13 4 -10 5 3 18 1 29 -4 14 -8 30 -7 58 4 l38
15 -48 -6 c-29 -3 -54 -1 -61 6 -10 8 -15 7 -20 -5z"/>
<path d="M2203 2583 c-24 -2 -43 -8 -43 -14 0 -5 6 -9 13 -10 66 -4 85 -3 81
2 -9 14 51 17 62 3 12 -15 34 -19 34 -6 0 29 -34 35 -147 25z"/>
<path d="M2900 2562 c-37 -4 -68 -22 -37 -22 9 0 17 -4 17 -10 0 -5 4 -10 10
-10 5 0 7 6 4 14 -4 11 4 16 28 18 18 2 29 5 23 8 -5 3 -26 4 -45 2z"/>
<path d="M2634 2537 c1 -12 -4 -21 -11 -20 -10 2 -10 -3 -1 -25 20 -46 26 -46
30 3 2 26 -2 50 -8 56 -7 6 -10 1 -10 -14z"/>
<path d="M62 2533 c7 -9 7 -13 0 -13 -5 0 -8 -9 -5 -19 3 -11 11 -17 18 -14 8
2 12 10 9 18 -5 13 24 25 66 25 14 0 32 5 40 10 10 7 -9 9 -62 7 -59 -1 -74
-5 -66 -14z"/>
<path d="M2007 2516 c-14 -21 -14 -25 -2 -30 11 -4 15 2 15 19 0 25 23 35 35
15 4 -6 11 -8 16 -4 15 9 0 24 -25 24 -14 0 -30 -10 -39 -24z"/>
<path d="M480 2520 c-19 -5 -96 -16 -170 -26 -159 -19 -184 -28 -106 -38 58
-6 106 0 106 14 0 9 30 16 110 25 40 4 51 3 40 -4 -12 -9 -9 -11 13 -11 16 0
26 4 22 10 -3 6 1 10 9 10 8 0 18 -4 21 -10 3 -5 15 -10 26 -10 18 0 19 1 3
25 -17 27 -21 27 -74 15z"/>
<path d="M2430 2499 c-30 -5 -31 -7 -8 -8 15 0 30 -5 33 -11 9 -15 25 -12 25
4 0 20 -9 23 -50 15z"/>
<path d="M2053 2484 c-7 -7 -13 -18 -13 -23 0 -5 -8 -12 -17 -14 -14 -4 -12
-5 5 -6 27 -1 30 -31 3 -31 -11 0 -23 -5 -27 -11 -11 -18 10 -30 42 -23 29 5
30 7 29 60 -1 61 -5 68 -22 48z"/>
<path d="M794 2476 c-3 -8 -1 -23 5 -33 10 -17 10 -17 11 3 0 11 5 25 12 32 9
9 8 12 -5 12 -10 0 -20 -6 -23 -14z"/>
<path d="M76 2465 c-9 -7 -14 -15 -9 -18 11 -7 63 4 63 13 0 14 -36 17 -54 5z"/>
<path d="M345 2470 c-12 -5 1 -6 35 -3 30 3 57 7 59 9 9 8 -75 2 -94 -6z"/>
<path d="M666 2398 c7 -71 14 -74 14 -5 0 32 -4 57 -9 57 -5 0 -8 -23 -5 -52z"/>
<path d="M2834 2430 c3 -14 6 -33 6 -42 0 -11 8 -18 20 -18 11 0 20 4 20 8 0
4 14 13 32 20 17 6 29 14 26 18 -3 3 -20 -2 -37 -10 -37 -19 -55 -20 -48 -3 3
7 -2 22 -10 32 -15 19 -15 19 -9 -5z"/>
<path d="M2610 2431 c0 -4 3 -11 7 -15 4 -4 8 -17 8 -28 0 -29 17 -32 34 -7
11 19 11 21 -3 16 -11 -5 -16 -1 -16 12 0 10 -7 21 -15 25 -8 3 -15 2 -15 -3z"/>
<path d="M2575 2401 c3 -17 0 -33 -5 -36 -12 -7 -4 -25 11 -25 5 0 9 20 9 45
0 25 -5 45 -10 45 -6 0 -8 -13 -5 -29z"/>
<path d="M455 2405 l-80 -13 75 5 c41 3 84 9 95 14 27 10 6 9 -90 -6z"/>
<path d="M776 2396 c-3 -13 -9 -32 -12 -43 -10 -27 10 -3 24 29 6 15 7 30 3
33 -5 2 -12 -6 -15 -19z"/>
<path d="M1005 2398 c-2 -7 0 -29 4 -48 l9 -35 1 48 c1 45 -5 60 -14 35z"/>
<path d="M118 2394 c-3 -3 1 -20 10 -37 16 -30 17 -31 20 -9 6 38 -12 65 -30
46z"/>
<path d="M255 2380 l-30 -8 30 0 c17 0 50 3 75 7 l45 8 -45 1 c-25 0 -58 -4
-75 -8z"/>
<path d="M2791 2369 c-1 -9 -8 -19 -16 -23 -11 -4 -14 -13 -9 -31 4 -15 2 -25
-5 -25 -6 0 -11 -7 -11 -16 0 -14 3 -14 15 -4 8 7 15 22 15 33 0 11 6 25 14
31 9 7 11 18 6 31 -7 16 -9 16 -9 4z"/>
<path d="M2614 2338 c-4 -6 4 -21 19 -34 15 -13 27 -28 27 -34 0 -5 9 -10 19
-10 23 0 38 37 23 52 -8 8 -9 4 -5 -11 3 -12 1 -21 -5 -21 -18 0 -64 48 -57
59 3 6 2 11 -4 11 -5 0 -13 -5 -17 -12z"/>
<path d="M94 2319 c-10 -16 9 -28 31 -19 11 5 14 9 7 9 -7 1 -10 6 -7 11 3 6
-1 10 -9 10 -8 0 -18 -5 -22 -11z"/>
<path d="M702 2312 c-8 -13 -11 -31 -7 -39 9 -26 27 0 23 33 l-3 29 -13 -23z"/>
<path d="M738 2279 c3 -22 7 -27 13 -18 13 21 11 49 -4 49 -9 0 -12 -10 -9
-31z"/>
<path d="M39 2215 c-6 -37 -6 -75 1 -75 12 0 19 53 9 70 -4 8 -9 11 -10 5z"/>
<path d="M2870 2198 c0 -4 -7 -5 -15 -2 -8 4 -15 1 -15 -5 0 -6 -5 -11 -10
-11 -15 0 -55 -39 -47 -46 3 -3 14 3 23 15 13 14 35 22 75 27 68 8 90 32 28
30 -21 0 -39 -4 -39 -8z"/>
<path d="M90 2120 c0 -10 32 -30 49 -30 6 0 11 4 11 10 0 5 -6 7 -14 4 -7 -3
-16 2 -19 10 -7 17 -27 22 -27 6z"/>
<path d="M2827 2113 c-15 -2 -25 -8 -23 -12 6 -10 86 -1 86 10 0 9 -12 9 -63
2z"/>
<path d="M2060 1705 l0 -197 143 4 c134 3 145 4 190 31 65 39 90 89 85 172 -5
82 -35 127 -103 156 -41 18 -74 23 -182 26 l-133 4 0 -196z m120 155 c7 11 12
12 21 3 7 -7 24 -9 40 -6 22 4 29 2 29 -11 0 -9 5 -16 10 -16 6 0 10 -5 10
-11 0 -11 23 -67 41 -101 5 -10 9 -25 9 -33 0 -8 5 -15 10 -15 6 0 10 -9 10
-21 0 -14 -5 -19 -14 -16 -10 4 -12 0 -9 -14 3 -10 9 -16 15 -13 5 3 17 3 26
-1 16 -6 15 -8 -2 -21 -11 -8 -33 -14 -49 -14 -16 0 -58 -8 -93 -17 -41 -11
-68 -14 -72 -8 -4 6 -20 10 -36 10 -16 0 -31 6 -34 14 -3 8 0 11 5 8 10 -6 8
33 -3 71 -5 16 -2 22 10 22 9 0 16 -7 16 -15 0 -14 12 -15 78 -10 94 8 117 15
82 25 -14 4 -30 3 -36 -1 -6 -5 -26 -4 -44 1 -27 8 -36 6 -46 -8 -13 -16 -14
-15 -20 6 -4 14 -12 21 -20 18 -18 -7 -28 12 -15 27 6 8 7 27 2 47 -8 36 0 93
11 75 3 -6 6 -32 7 -59 2 -80 11 -66 11 17 0 75 1 77 20 65 17 -11 22 -10 30
2z m196 -49 l11 -22 7 23 c7 22 7 22 15 3 4 -11 11 -64 14 -118 5 -86 3 -98
-10 -95 -18 3 -19 4 -68 113 -50 107 -56 125 -50 136 9 14 69 -15 81 -40z"/>
<path d="M2160 1775 c0 -44 3 -53 15 -49 17 7 21 44 4 44 -8 0 -7 6 2 17 11
13 11 17 1 20 -6 3 -10 9 -6 14 3 5 0 9 -5 9 -7 0 -11 -23 -11 -55z"/>
<path d="M2217 1728 c-6 -21 4 -48 19 -48 8 0 14 6 14 14 0 8 6 16 13 19 6 2
4 3 -5 2 -10 -2 -18 3 -18 11 0 17 -17 19 -23 2z"/>
<path d="M2180 1610 c-44 -7 -38 -14 9 -10 13 1 28 -4 32 -12 6 -9 9 -7 9 10
0 12 -1 21 -2 20 -2 0 -23 -4 -48 -8z"/>
<path d="M2378 1765 c-3 -5 -3 -28 1 -50 5 -28 8 -34 12 -20 6 25 -4 84 -13
70z"/>
<path d="M0 1840 c0 -12 37 -12 65 0 15 7 10 9 -22 9 -24 1 -43 -3 -43 -9z"/>
<path d="M90 1815 c0 -16 6 -25 15 -25 8 0 15 -5 15 -12 0 -6 2 -9 5 -7 7 7
-18 69 -27 69 -4 0 -8 -11 -8 -25z"/>
<path d="M315 1740 c-3 -5 -17 -7 -31 -4 -14 4 -24 2 -24 -5 0 -6 15 -11 34
-11 30 0 35 -4 39 -27 3 -23 4 -21 6 9 1 37 -12 58 -24 38z"/>
<path d="M257 1623 c-10 -17 6 -73 20 -73 13 0 13 3 3 15 -7 8 -10 24 -7 35 5
20 -7 37 -16 23z"/>
<path d="M450 1623 c0 -6 5 -15 10 -18 15 -9 12 -25 -5 -25 -8 0 -15 -4 -15
-9 0 -8 29 -9 83 -2 5 1 5 6 2 11 -4 6 -11 7 -17 4 -6 -4 -22 6 -35 22 -12 16
-23 24 -23 17z"/>
<path d="M390 1582 c0 -41 18 -63 52 -61 7 0 3 4 -9 9 -14 6 -24 19 -25 32 -2
42 -3 47 -11 54 -4 4 -7 -11 -7 -34z"/>
<path d="M0 1589 c0 -5 7 -9 15 -9 9 0 15 -9 15 -25 0 -14 5 -25 11 -25 6 0 9
7 6 15 -8 20 8 28 23 10 17 -21 29 -19 23 4 -6 24 -93 52 -93 30z"/>
<path d="M60 1388 c0 -14 7 -28 15 -32 8 -3 15 -12 15 -21 0 -8 5 -15 10 -15
17 0 11 25 -15 60 -25 34 -25 34 -25 8z"/>
<path d="M0 1360 c0 -5 7 -10 15 -10 8 0 15 -7 15 -15 0 -8 8 -15 17 -15 14 0
12 4 -7 25 -25 26 -40 32 -40 15z"/>
<path d="M255 1253 c15 -77 16 -78 27 -60 7 13 6 27 -2 48 -14 32 -30 40 -25
12z"/>
<path d="M31 1160 c2 -93 9 -125 23 -101 4 5 2 12 -4 16 -13 8 -3 25 15 25 7
0 16 -12 18 -27 4 -27 4 -26 6 4 1 23 -4 32 -16 35 -14 3 -18 15 -20 58 -2 88
-2 90 -13 90 -6 0 -10 -39 -9 -100z"/>
<path d="M92 1234 c1 -26 5 -29 37 -31 29 -2 32 0 15 7 -12 5 -29 18 -37 31
-16 22 -16 22 -15 -7z"/>
<path d="M2912 1156 c-2 -66 -1 -68 21 -62 12 3 32 6 44 6 16 0 21 4 16 16 -4
12 -8 12 -13 3 -5 -7 -18 -9 -33 -5 -23 5 -26 12 -30 59 -3 48 -3 46 -5 -17z"/>
<path d="M2770 1045 c0 -24 3 -25 55 -25 52 0 55 1 55 25 0 18 -5 25 -19 25
-11 0 -23 -4 -26 -10 -3 -5 -1 -10 5 -10 6 0 8 -4 5 -10 -3 -5 -17 -10 -31
-10 -17 0 -24 5 -24 20 0 11 -4 20 -10 20 -5 0 -10 -11 -10 -25z"/>
<path d="M2910 1045 c0 -23 4 -25 45 -25 41 0 45 2 45 25 0 15 -6 25 -15 25
-8 0 -12 -6 -9 -14 3 -8 1 -17 -5 -21 -7 -3 -11 2 -11 14 0 16 -6 21 -25 21
-20 0 -25 -5 -25 -25z"/>
<path d="M2223 1001 c-41 -5 -51 -9 -44 -20 7 -10 13 -11 30 -2 20 11 21 9 21
-23 0 -19 5 -38 10 -41 6 -4 10 10 10 34 0 23 5 41 10 41 6 0 10 -11 10 -24 0
-13 3 -32 6 -41 5 -11 0 -18 -15 -22 -11 -3 -21 -13 -20 -22 0 -10 2 -11 6 -3
7 17 23 15 23 -4 0 -8 5 -12 10 -9 10 6 10 147 0 143 -3 -1 -28 -4 -57 -7z"/>
<path d="M2910 966 l0 -37 45 3 c29 2 45 8 45 16 0 7 -4 11 -9 8 -12 -8 -72 5
-66 14 2 4 18 7 36 8 41 1 51 12 11 12 -16 0 -37 3 -46 6 -13 5 -16 -1 -16
-30z"/>
<path d="M2775 960 c0 -30 1 -30 53 -30 51 0 52 0 52 30 0 30 -1 30 -52 30
-52 0 -53 0 -53 -30z"/>
<path d="M2323 765 c2 -190 0 -220 -13 -220 -11 0 -16 15 -18 63 -3 60 -22 90
-22 35 0 -16 -3 -45 -6 -65 -6 -34 -4 -38 14 -38 11 0 23 -4 26 -9 3 -5 14 -7
24 -5 16 5 17 22 14 216 -2 117 -7 219 -12 227 -5 10 -8 -75 -7 -204z"/>
<path d="M2144 810 c0 -58 1 -81 3 -52 2 28 2 76 0 105 -2 28 -3 5 -3 -53z"/>
<path d="M2182 813 c2 -96 2 -96 5 -21 3 66 7 78 23 83 17 6 18 8 6 21 -30 30
-36 16 -34 -83z"/>
<path d="M73 893 l-43 -4 1 -122 c1 -90 3 -113 10 -87 4 19 6 70 4 112 -4 82
-1 88 51 88 13 0 24 5 24 10 0 6 -1 9 -2 8 -2 -1 -22 -3 -45 -5z"/>
<path d="M2270 806 c0 -20 5 -36 10 -36 6 0 10 13 10 29 0 17 -4 33 -10 36 -6
4 -10 -8 -10 -29z"/>
<path d="M2630 818 c0 -4 23 -8 50 -8 l50 0 0 -35 c0 -19 -4 -35 -10 -35 -5 0
-10 -4 -10 -10 0 -5 7 -10 15 -10 11 0 15 13 15 54 l0 53 -55 -1 c-30 0 -55
-4 -55 -8z"/>
<path d="M2772 743 l2 -88 3 78 4 77 32 0 c38 0 62 -13 53 -29 -4 -6 -2 -11 3
-11 6 0 11 14 11 30 0 30 -1 30 -55 30 l-55 0 2 -87z"/>
<path d="M2913 678 c4 -83 7 -173 7 -200 l0 -48 40 0 c22 0 40 5 40 10 0 6
-15 10 -32 10 l-33 0 0 68 c1 37 5 74 10 82 17 28 16 51 -2 48 -16 -3 -18 7
-21 81 -2 72 -1 83 13 78 8 -4 15 -2 15 4 0 5 11 7 25 3 15 -4 25 -2 25 5 0 6
-19 11 -47 11 l-46 0 6 -152z"/>
<path d="M2238 773 c0 -10 -2 -22 -3 -28 -2 -5 -4 -14 -5 -20 -1 -5 -5 -1 -10
10 -8 19 -9 19 -9 -1 -1 -14 7 -24 19 -27 11 -3 20 -2 21 1 5 61 4 82 -3 82
-4 0 -9 -8 -10 -17z"/>
<path d="M2418 767 c7 -8 12 -80 12 -191 1 -98 4 -175 8 -171 3 3 5 25 3 49
-1 24 2 47 8 51 6 3 11 14 11 24 0 10 11 30 25 45 29 31 44 78 27 84 -7 2 -12
10 -12 18 0 8 -5 14 -11 14 -5 0 -7 -5 -4 -10 3 -6 3 -30 -1 -55 -5 -34 -9
-43 -19 -35 -6 5 -14 8 -16 6 -2 -2 -5 31 -6 75 -2 64 0 79 12 79 8 0 15 7 15
15 0 10 -10 15 -31 15 -25 0 -29 -3 -21 -13z"/>
<path d="M2542 728 c-14 -14 -16 -78 -3 -78 7 0 22 79 16 87 -1 2 -7 -3 -13
-9z"/>
<path d="M2137 693 c-4 -3 -2 -13 2 -22 5 -9 8 -41 7 -71 -1 -48 -4 -55 -22
-58 -20 -3 -22 3 -29 72 -7 82 -25 107 -20 29 4 -54 -9 -85 -33 -81 -23 4 -40
39 -44 91 -3 30 -5 20 -8 -36 l-5 -77 50 0 c28 0 66 -4 84 -10 20 -6 39 -6 45
-1 6 5 25 11 41 13 24 2 31 8 33 31 2 15 -2 27 -8 27 -7 0 -9 8 -4 22 6 21 6
21 -11 5 -16 -16 -22 -34 -24 -64 -1 -7 -8 -13 -16 -13 -12 0 -15 14 -15 69 0
64 -8 90 -23 74z"/>
<path d="M2600 679 c0 -19 -2 -21 -10 -9 -7 10 -10 -30 -10 -122 0 -130 1
-138 19 -138 19 0 20 6 14 143 -3 78 -7 144 -9 146 -2 2 -4 -7 -4 -20z"/>
<path d="M1802 628 c-1 -38 -2 -71 -2 -75 0 -5 30 -11 67 -14 38 -4 75 -9 83
-10 8 -2 15 2 14 9 -1 6 -2 44 -2 82 -1 39 -6 70 -11 70 -4 0 -6 -31 -3 -70 4
-59 2 -71 -12 -76 -9 -4 -25 1 -35 10 -10 9 -20 13 -23 10 -9 -9 -20 53 -13
75 3 11 1 22 -5 26 -6 4 -10 -14 -10 -50 0 -48 -3 -56 -17 -53 -14 2 -19 17
-24 68 l-6 65 -1 -67z"/>
<path d="M2200 681 l25 -8 -25 -11 -25 -11 27 0 c35 -1 32 33 -3 36 l-24 2 25
-8z"/>
<path d="M2640 598 c0 -32 4 -58 9 -58 4 0 7 12 5 28 -6 49 4 62 47 62 57 0
48 17 -11 22 l-50 3 0 -57z"/>
<path d="M2774 634 c3 -9 6 -58 6 -110 l0 -94 55 0 c30 0 55 5 55 10 0 6 -22
10 -50 10 l-50 0 0 90 c0 73 3 90 15 90 8 0 15 5 15 10 0 6 -12 10 -26 10 -20
0 -25 -4 -20 -16z"/>
<path d="M2840 640 c0 -5 6 -10 14 -10 8 0 17 -8 19 -17 3 -11 5 -7 6 10 1 21
-4 27 -19 27 -11 0 -20 -4 -20 -10z"/>
<path d="M32 580 c-2 -62 5 -71 38 -50 13 8 12 10 -3 10 -15 0 -18 7 -16 38 2
49 1 62 -9 62 -4 0 -9 -27 -10 -60z"/>
<path d="M250 621 c0 -10 7 -22 16 -25 22 -8 24 -5 17 22 -7 27 -33 29 -33 3z"/>
<path d="M1420 588 c0 -30 10 -40 27 -30 8 5 6 15 -7 32 l-20 25 0 -27z"/>
<path d="M2527 563 c-4 -3 -6 -65 -5 -137 l2 -131 5 135 c7 150 7 142 -2 133z"/>
<path d="M150 538 c0 -26 -22 -53 -33 -41 -4 3 -7 -3 -7 -14 0 -16 5 -20 20
-16 11 3 20 0 20 -6 0 -6 -9 -11 -20 -11 -11 0 -20 -5 -20 -11 0 -7 9 -9 23
-5 12 3 24 6 27 6 8 0 5 108 -3 116 -4 4 -7 -4 -7 -18z"/>
<path d="M716 494 c-4 -10 -13 -13 -26 -9 -14 5 -20 2 -20 -9 0 -9 7 -16 15
-16 9 0 20 -11 25 -24 14 -38 27 -38 49 0 25 42 26 54 6 54 -8 0 -15 5 -15 10
0 16 -27 11 -34 -6z m34 -52 c0 -26 -25 -5 -28 24 -2 28 -2 28 13 10 8 -11 15
-26 15 -34z"/>
<path d="M857 503 c-4 -3 -7 -19 -7 -35 0 -26 3 -29 23 -22 12 3 23 7 24 8 1
0 -1 13 -4 29 -5 26 -22 35 -36 20z"/>
<path d="M1721 446 c5 -36 4 -62 -2 -64 -5 -2 -9 -31 -9 -65 0 -39 4 -57 9
-48 5 7 14 11 19 7 13 -8 18 50 14 151 -3 57 -7 72 -21 76 -15 4 -16 -2 -10
-57z"/>
<path d="M2250 470 c0 -5 8 -10 19 -10 14 0 17 -6 13 -25 -5 -28 14 -35 21 -7
3 9 5 -1 5 -23 0 -22 -2 -32 -5 -22 -8 30 -23 18 -23 -19 0 -27 4 -35 14 -31
8 3 17 0 19 -8 7 -17 -1 -25 -25 -25 -12 0 -18 -7 -18 -21 0 -16 4 -19 23 -13
12 3 22 7 22 8 1 0 6 13 12 28 13 30 7 146 -9 166 -12 14 -68 16 -68 2z"/>
<path d="M1795 452 c3 -8 5 -36 5 -63 0 -47 1 -49 29 -49 28 0 28 1 23 50 -3
30 -1 50 6 50 15 0 22 -25 15 -64 -4 -29 -2 -36 11 -36 17 0 22 25 7 34 -14 9
4 61 22 64 14 3 17 -4 14 -45 -2 -43 0 -48 21 -51 22 -3 23 -1 20 58 l-3 61
-88 2 c-69 2 -86 -1 -82 -11z m35 -52 c0 -27 -4 -50 -10 -50 -11 0 -14 83 -3
93 12 12 13 8 13 -43z"/>
<path d="M2009 460 c-4 -27 5 -117 13 -125 7 -7 8 1 4 27 -7 39 1 88 14 88 4
0 8 -6 7 -12 -2 -51 5 -98 13 -98 6 0 10 21 10 46 l0 46 47 -7 c51 -7 70 -15
35 -15 -16 0 -22 -6 -22 -21 0 -11 -4 -18 -9 -15 -5 3 -8 -5 -8 -17 0 -20 4
-22 33 -19 27 3 34 1 34 -13 0 -14 -10 -16 -70 -14 -78 4 -101 -7 -70 -33 13
-12 22 -14 26 -6 4 5 2 13 -4 17 -5 3 19 7 54 8 67 3 79 -2 42 -17 -22 -9 -22
-9 3 -9 22 -1 28 5 33 31 3 17 3 60 0 94 l-7 63 -88 3 c-49 2 -89 1 -90 -2z"/>
<path d="M2644 451 c-2 -2 -1 -8 2 -12 7 -12 104 -11 104 0 0 9 -98 20 -106
12z"/>
<path d="M17 434 c-12 -12 43 -46 61 -38 15 6 15 8 -3 12 -11 2 -27 10 -36 18
-9 8 -18 11 -22 8z"/>
<path d="M775 421 c-3 -5 -1 -12 5 -16 6 -4 5 -16 -5 -35 -20 -38 -19 -43 5
-28 21 13 29 68 9 68 -5 0 -7 5 -4 10 3 6 4 10 1 10 -3 0 -7 -4 -11 -9z"/>
<path d="M1606 422 c-9 -14 -4 -142 5 -148 5 -3 9 31 9 75 0 78 -3 91 -14 73z"/>
<path d="M864 330 c0 -52 1 -74 3 -47 2 26 2 68 0 95 -2 26 -3 4 -3 -48z"/>
<path d="M2700 390 l-65 -7 77 0 c43 0 75 4 72 8 -3 5 -8 8 -12 7 -4 -1 -36
-4 -72 -8z"/>
<path d="M118 383 c-27 -4 -28 -7 -28 -64 0 -52 2 -60 18 -57 21 4 29 53 11
74 -10 13 -10 17 2 25 8 5 22 7 32 5 10 -2 17 2 17 10 0 8 -6 13 -12 13 -7 -1
-25 -4 -40 -6z"/>
<path d="M204 374 c3 -9 6 -37 6 -63 l0 -47 40 -1 c33 -2 40 1 40 17 0 13 -6
19 -17 18 -44 -3 -53 2 -53 32 0 38 17 39 23 3 4 -26 4 -26 6 5 1 40 21 43 21
2 0 -16 4 -30 9 -30 6 0 9 18 9 40 l0 40 -45 0 c-37 0 -44 -3 -39 -16z"/>
<path d="M329 380 c-3 -13 3 -87 7 -103 4 -11 12 -16 20 -13 8 3 25 1 38 -4
24 -9 24 -8 25 58 l0 67 -44 0 c-25 0 -45 -2 -46 -5z m35 -24 c-3 -8 -1 -17 5
-21 7 -4 11 3 11 17 0 18 2 20 10 8 5 -8 10 -27 10 -42 0 -23 -4 -28 -25 -28
-22 0 -25 4 -25 40 0 22 4 40 10 40 5 0 7 -6 4 -14z"/>
<path d="M2848 383 c28 -2 76 -2 105 0 28 2 5 3 -53 3 -58 0 -81 -1 -52 -3z"/>
<path d="M1420 370 c0 -15 43 -30 51 -18 4 6 17 7 29 3 16 -5 21 -4 18 6 -6
17 -98 25 -98 9z"/>
<path d="M1544 356 c3 -14 2 -27 -2 -30 -13 -8 -8 -119 5 -123 6 -2 11 6 10
19 0 13 3 53 7 91 6 59 5 67 -10 67 -12 0 -15 -6 -10 -24z"/>
<path d="M974 354 c3 -9 6 -20 6 -25 0 -5 11 -9 24 -9 17 0 25 7 28 25 5 23 2
25 -29 25 -28 0 -34 -3 -29 -16z"/>
<path d="M34 336 c-3 -8 -7 -22 -8 -31 -1 -9 -9 -21 -17 -26 -8 -5 -9 -9 -2
-9 6 0 18 -3 27 -6 13 -5 15 2 14 40 -2 49 -5 55 -14 32z"/>
<path d="M157 343 c-11 -10 -8 -53 3 -53 6 0 10 14 10 30 0 31 -2 35 -13 23z"/>
<path d="M2880 319 c0 -4 4 -10 10 -14 5 -3 7 -12 4 -20 -3 -7 -1 -22 5 -32 9
-16 11 -15 12 7 1 14 1 31 0 38 -1 8 13 12 44 12 25 0 45 3 45 8 0 4 -27 7
-60 8 -33 0 -60 -3 -60 -7z"/>
<path d="M1810 305 c0 -17 59 -22 76 -6 15 14 73 1 76 -18 3 -10 6 -6 10 12 5
27 5 27 -53 27 -36 0 -59 -5 -63 -12 -5 -10 -7 -10 -12 0 -8 17 -34 15 -34 -3z"/>
<path d="M1422 294 c2 -15 12 -19 42 -19 23 0 41 5 44 13 2 8 -7 12 -26 12
-17 0 -38 3 -47 6 -13 5 -16 2 -13 -12z"/>
<path d="M988 290 c-4 -8 -9 -61 -13 -117 -7 -124 10 -142 20 -21 7 88 3 163
-7 138z"/>
<path d="M2622 295 c3 -3 60 -7 128 -8 67 -2 114 0 104 4 -22 9 -240 12 -232
4z"/>
<path d="M2375 280 c-16 -3 -25 -8 -20 -12 6 -3 26 -3 45 1 21 4 29 9 20 12
-8 3 -28 3 -45 -1z"/>
<path d="M2462 225 c0 -25 3 -44 6 -41 9 10 11 86 2 86 -5 0 -9 -20 -8 -45z"/>
<path d="M790 211 c0 -28 5 -51 10 -51 6 0 10 20 10 44 0 25 -4 48 -10 51 -6
4 -10 -13 -10 -44z"/>
<path d="M1435 234 c-17 -13 -18 -16 -5 -24 8 -5 23 -7 33 -4 10 3 24 0 32 -6
12 -10 15 -9 15 9 0 16 -6 21 -24 21 -13 0 -26 4 -28 9 -1 5 -12 3 -23 -5z"/>
<path d="M1711 210 l1 -35 11 30 11 30 7 -30 7 -30 1 35 c1 29 -3 36 -19 36
-16 0 -20 -7 -19 -36z"/>
<path d="M2050 227 c0 -15 -7 -30 -15 -33 -8 -4 -15 -14 -15 -25 0 -16 2 -16
25 5 27 25 31 42 15 66 -8 12 -10 9 -10 -13z"/>
<path d="M886 231 c-4 -5 0 -12 6 -15 9 -3 8 -8 -4 -16 -30 -18 -21 -37 20
-42 20 -3 39 -3 41 -1 3 2 -5 17 -17 33 -12 16 -22 34 -22 40 0 12 -17 13 -24
1z"/>
<path d="M27 198 c13 -12 40 -24 65 -27 40 -6 43 -8 46 -38 2 -18 -1 -33 -7
-33 -5 0 -16 -3 -25 -6 -13 -5 -16 1 -16 25 0 30 -1 31 -45 31 -25 0 -45 -4
-45 -10 0 -5 9 -10 19 -10 13 0 18 -6 16 -17 -1 -10 -10 -17 -19 -17 -9 1 -16
-4 -16 -12 0 -18 36 -18 43 -1 4 11 14 12 51 3 25 -6 46 -16 46 -23 0 -6 4
-14 8 -17 5 -3 7 28 4 69 -3 52 -1 80 8 90 10 12 9 15 -5 15 -9 0 -19 -8 -21
-17 -5 -17 -9 -18 -83 -14 -7 1 -11 7 -7 16 4 11 -1 15 -17 15 l-21 0 21 -22z"/>
<path d="M344 166 l0 -55 38 1 38 0 0 49 c0 42 -3 49 -20 49 -11 0 -20 -7 -20
-15 0 -8 7 -15 15 -15 9 0 15 -10 15 -26 0 -18 -4 -25 -14 -21 -7 3 -19 0 -25
-6 -8 -8 -11 3 -11 41 0 29 -3 52 -7 52 -5 0 -8 -24 -9 -54z"/>
<path d="M2653 165 c0 -56 16 -91 18 -38 0 15 2 43 3 61 3 20 -1 32 -9 32 -8
0 -12 -18 -12 -55z"/>
<path d="M1830 200 c0 -5 5 -10 10 -10 6 0 10 -7 10 -15 0 -8 9 -15 20 -15 28
0 26 36 -2 44 -32 8 -38 7 -38 -4z"/>
<path d="M2713 203 c7 -7 159 -4 166 3 2 2 -35 4 -84 4 -49 0 -85 -3 -82 -7z"/>
<path d="M2181 193 c4 -23 -2 -43 -11 -38 -5 3 -10 2 -10 -3 0 -14 51 -25 63
-13 7 7 5 12 -6 17 -9 3 -17 15 -17 25 0 10 -4 19 -10 19 -5 0 -9 -3 -9 -7z"/>
<path d="M184 176 c-3 -7 -3 -40 -1 -72 l3 -59 2 63 c1 34 7 62 12 62 6 0 10
5 10 10 0 15 -20 12 -26 -4z"/>
<path d="M247 128 c1 -35 2 -78 2 -96 1 -18 5 -31 10 -28 12 8 9 178 -4 183
-6 2 -9 -22 -8 -59z"/>
<path d="M1375 173 c-62 -6 -103 -23 -108 -45 -4 -12 -1 -28 5 -35 7 -9 7 -13
-1 -13 -7 0 -9 -4 -6 -10 3 -5 16 -10 28 -9 12 0 16 3 10 6 -8 2 -13 22 -13
44 0 34 3 39 23 39 32 0 37 -7 26 -43 -7 -24 -5 -35 8 -49 9 -10 21 -18 26
-18 6 0 3 6 -6 13 -15 10 -16 20 -9 52 l8 40 54 0 c54 0 55 -1 67 -35 10 -31
12 -32 13 -10 l1 25 24 -30 c13 -16 25 -42 27 -59 4 -41 28 -47 25 -7 -1 17
-5 31 -9 31 -5 0 -8 7 -8 15 0 8 -4 15 -10 15 -5 0 -10 6 -10 13 0 33 -101 75
-165 70z"/>
<path d="M1565 170 c-4 -6 11 -10 39 -10 25 0 47 -4 50 -9 7 -11 29 -9 36 4
10 19 -114 33 -125 15z"/>
<path d="M2894 169 c-3 -5 21 -9 53 -9 39 0 53 3 43 9 -18 12 -88 12 -96 0z"/>
<path d="M2461 115 c1 -43 2 -46 10 -24 6 16 6 35 0 50 -8 20 -10 16 -10 -26z"/>
<path d="M697 111 c-5 -25 -11 -29 -33 -27 -14 2 -30 9 -35 17 -5 8 -9 12 -10
9 0 -3 -2 -13 -4 -23 -4 -18 -6 -18 115 -42 93 -19 90 -19 90 4 0 25 -16 36
-24 16 -3 -8 -12 -12 -21 -9 -8 3 -12 11 -8 17 4 7 0 8 -13 3 -10 -4 -23 -8
-29 -9 -16 -3 -5 47 13 61 14 10 13 12 -10 12 -20 0 -27 -6 -31 -29z"/>
<path d="M1597 134 c-3 -3 -3 -12 0 -20 4 -10 9 -11 24 -1 10 6 19 15 19 19 0
9 -34 11 -43 2z"/>
<path d="M1730 126 c0 -9 7 -16 15 -16 15 0 85 -60 85 -73 0 -4 -16 -4 -35 -1
-25 4 -35 2 -35 -8 0 -10 11 -12 40 -10 22 2 42 8 45 12 6 10 -52 71 -90 96
-23 15 -25 15 -25 0z"/>
<path d="M2830 129 l-25 -7 27 -1 c27 -1 45 -15 31 -24 -13 -8 -2 -97 11 -97
7 0 11 19 11 53 0 48 2 52 25 54 34 2 99 21 80 22 -64 6 -139 6 -160 0z"/>
<path d="M825 91 c25 -36 32 -41 67 -41 24 0 37 -4 33 -10 -3 -5 2 -10 12 -10
30 0 -7 28 -42 32 -19 2 -37 13 -50 32 -31 46 -50 43 -20 -3z"/>
<path d="M1840 110 c0 -11 -1 -11 58 -14 25 -2 42 2 42 9 0 6 -21 12 -50 13
-28 1 -50 -2 -50 -8z"/>
<path d="M2164 106 c-18 -14 -18 -15 -1 -22 22 -8 46 11 31 26 -7 7 -17 5 -30
-4z"/>
<path d="M2020 100 c0 -5 15 -10 34 -10 19 0 38 5 41 10 4 6 -10 10 -34 10
-23 0 -41 -4 -41 -10z"/>
<path d="M2250 90 c0 -5 16 -10 35 -10 19 0 35 5 35 10 0 6 -16 10 -35 10 -19
0 -35 -4 -35 -10z"/>
<path d="M1020 70 c0 -17 7 -20 48 -20 l47 0 -25 20 c-34 26 -70 26 -70 0z"/>
<path d="M2731 86 c7 -8 98 -10 105 -3 4 4 -19 7 -51 7 -32 0 -56 -2 -54 -4z"/>
<path d="M1666 63 c11 -11 18 -13 26 -5 7 7 16 7 29 -1 14 -9 21 -9 31 1 9 9
7 12 -12 13 -14 0 -40 2 -57 4 -30 3 -31 2 -17 -12z"/>
<path d="M2682 71 c-7 -4 -20 -20 -27 -35 -16 -31 -5 -41 37 -33 20 4 19 4 -6
6 -21 1 -27 5 -22 17 3 9 6 20 6 25 0 5 6 9 14 9 8 0 18 5 21 10 7 12 -5 13
-23 1z"/>
<path d="M1440 62 c0 -9 79 -36 85 -30 2 2 1 8 -3 14 -9 14 -82 28 -82 16z"/>
<path d="M2126 52 c-3 -5 -27 -10 -53 -11 -76 -2 -78 -21 -2 -21 60 0 89 11
89 32 0 11 -27 10 -34 0z"/>
<path d="M2940 30 c0 -17 5 -30 11 -30 6 0 9 9 6 20 -3 10 0 21 6 23 6 2 3 6
-6 10 -14 5 -17 1 -17 -23z"/>
<path d="M180 23 c0 -15 15 -16 45 -3 23 10 20 12 -17 14 -17 1 -28 -3 -28
-11z"/>
<path d="M290 30 c0 -15 93 -31 160 -27 l75 3 -82 2 c-46 1 -83 6 -83 11 0 5
-16 11 -35 13 -19 2 -35 1 -35 -2z"/>
<path d="M2787 20 c-6 -24 18 -28 27 -4 8 22 8 24 -8 24 -7 0 -16 -9 -19 -20z"/>
<path d="M40 14 c0 -10 13 -14 42 -14 33 0 39 3 30 12 -18 18 -72 19 -72 2z"/>
<path d="M1260 8 c0 -4 33 -8 73 -7 84 1 79 6 -10 11 -35 3 -63 1 -63 -4z"/>
</g>
</svg>
